<?xml version="1.0" encoding="utf-8"?>
<!-- Generator: Adobe Illustrator 13.0.0, SVG Export Plug-In . SVG Version: 6.00 Build 14948)  -->
<!DOCTYPE svg PUBLIC "-//W3C//DTD SVG 1.1//EN" "http://www.w3.org/Graphics/SVG/1.1/DTD/svg11.dtd">
<svg version="1.1" id="Layer_1" xmlns="http://www.w3.org/2000/svg" xmlns:xlink="http://www.w3.org/1999/xlink" x="0px" y="0px"
	 width="371.299px" height="367.382px" viewBox="0 0 371.299 367.382" enable-background="new 0 0 371.299 367.382"
	 xml:space="preserve">
<g>
	<path d="M289.502,309.94c0-21.138,11.259-34.924,27.802-34.924c16.772,0,27.802,12.867,27.802,34.924
		c0,21.599-11.029,34.695-27.802,34.695C300.761,344.635,289.502,331.08,289.502,309.94 M322.818,367.382
		c29.181,0,48.48-24.126,48.48-56.982c0-34.006-18.841-57.9-48.48-57.9c-14.246,0-26.193,6.893-32.168,14.705v-58.82h-26.193
		v156.241h26.193v-11.489C297.544,361.638,308.113,367.382,322.818,367.382 M209.547,309.94c0,21.14-11.26,34.695-27.802,34.695
		c-16.773,0-27.802-13.097-27.802-34.695c0-22.057,11.029-34.924,27.802-34.924C198.287,275.016,209.547,288.802,209.547,309.94
		 M176.231,367.382c14.705,0,25.274-5.744,32.167-14.246v11.489h26.192V208.384h-26.192v58.82
		c-5.975-7.812-17.923-14.705-32.167-14.705c-29.64,0-48.481,23.895-48.481,57.9C127.75,343.256,147.05,367.382,176.231,367.382
		 M53.766,273.637c14.705,0,25.044,9.65,25.733,23.896H26.194C26.883,284.436,38.831,273.637,53.766,273.637 M87.771,326.024
		c-3.447,5.515-12.178,18.842-31.938,18.842c-19.3,0-28.491-12.867-30.329-27.803h79.729c0-1.838,0.23-4.824,0.23-6.663
		c0-33.546-16.773-57.672-51.697-57.672C23.207,252.728,0,275.247,0,309.021c0,35.385,22.058,58.361,54.455,58.361
		c31.937,0,46.642-19.99,51.468-27.572L87.771,326.024z"/>
	<path d="M112.255,128.967c4.747,0,7.658,3.227,8.101,8.543h-16.898C104.028,132.258,107.635,128.967,112.255,128.967
		 M121.812,146.625c-1.076,1.771-3.734,5.126-8.987,5.126c-6.645,0-9.43-5.126-9.556-10.063h22.53v-1.139
		c0-8.987-4.493-15.822-13.544-15.822c-8.29,0-14.303,6.393-14.303,15.632c0,10.063,5.76,15.949,14.367,15.949
		c8.227,0,12.151-5.189,13.29-6.962L121.812,146.625z M91.813,129.473c-1.962-2.279-5.949-4.747-11.518-4.747
		s-11.518,2.722-11.518,9.177c0,5.316,4.303,7.405,9.493,8.417l4.113,0.823c3.038,0.57,5.253,1.203,5.253,4.051
		c0,3.037-2.784,4.746-6.898,4.746c-4.114,0-7.531-2.151-9.81-5.126l-3.417,3.544c2.405,3.102,7.151,5.949,12.911,5.949
		c7.214,0,12.594-3.418,12.594-9.556c0-5.253-3.861-7.279-8.671-8.291l-3.48-0.696c-4.494-0.95-6.772-1.709-6.772-4.557
		c0-2.658,2.595-4.114,5.949-4.114c3.291,0,6.202,1.392,8.354,3.797L91.813,129.473z M55.929,145.864
		c0,4.685-3.671,6.394-7.594,6.394c-3.608,0-6.266-1.836-6.266-5.253c0-3.671,3.354-4.432,7.152-5.19
		c4.873-1.013,6.202-1.266,6.708-1.456V145.864z M64.283,152.32h-0.696c-1.835,0-2.595-0.633-2.595-2.722v-15.314
		c0-7.532-4.43-9.493-11.265-9.493c-6.709,0-12.468,3.291-12.341,10.062l5,0.57c0-3.607,1.708-6.329,7.151-6.329
		c5.316,0,6.392,2.089,6.392,5.253v0.823c0,1.266-0.633,1.519-2.531,1.835l-5.063,0.886c-4.367,0.76-7.848,1.772-9.873,4.051
		c-1.14,1.266-1.836,2.975-1.836,5.379c0,6.076,4.304,9.051,10.443,9.051c5.759,0,8.164-2.596,9.113-4.178h0.064
		c0.189,2.47,1.392,4.052,5.063,4.052c1.329,0,2.341-0.127,2.974-0.253V152.32z M8.337,140.422c0-7.595,4.05-11.393,9.24-11.393
		c5.316,0,8.86,4.051,8.86,11.393c0,7.215-3.291,11.455-8.734,11.455C12.45,151.877,8.337,148.081,8.337,140.422 M18.716,156.307
		c7.658,0,13.101-5.886,13.101-15.759c0-10.126-5.76-15.822-13.291-15.822c-5.443,0-8.607,3.038-9.683,5.127v-17.341H3.59v43.036
		h5.253v-4.431C9.919,153.143,13.021,156.307,18.716,156.307"/>
	<path d="M51.436,72.711c4.747,0,7.658,3.227,8.101,8.543H42.639C43.209,76.002,46.816,72.711,51.436,72.711 M60.993,90.369
		c-1.076,1.771-3.734,5.126-8.987,5.126c-6.646,0-9.43-5.126-9.557-10.063H64.98v-1.139c0-8.987-4.494-15.822-13.544-15.822
		c-8.291,0-14.303,6.392-14.303,15.632c0,10.063,5.759,15.949,14.366,15.949c8.228,0,12.152-5.19,13.291-6.962L60.993,90.369z
		 M25.045,84.167c0,7.658-4.113,11.455-9.366,11.455c-5.443,0-8.734-4.24-8.734-11.455c0-7.342,3.544-11.393,8.86-11.393
		C20.995,72.774,25.045,76.571,25.045,84.167 M14.666,100.051c5.696,0,8.797-3.164,9.873-5.19v4.432h5.253V56.256h-5.253v17.341
		c-1.076-2.089-4.24-5.127-9.683-5.127c-7.531,0-13.291,5.696-13.291,15.822C1.565,94.166,7.008,100.051,14.666,100.051"/>
	<path d="M198.451,16.898h5.822V37.72c0,1.265,0.127,2.215,0.379,2.911c0.949,2.531,3.418,3.164,6.267,3.164
		c1.962,0,3.733-0.253,5.253-0.633v-4.113c-1.014,0.19-2.215,0.379-3.48,0.379c-1.646,0-2.342-0.316-2.723-1.012
		c-0.379-0.633-0.443-1.519-0.443-2.848v-18.67h6.646v-3.987h-6.646V0.886l-5.252,1.139v10.886h-5.822V16.898z M194.4,24.113
		c0-3.544-0.633-6.139-1.898-8.101c-1.646-2.532-4.557-3.861-8.481-3.861c-4.999,0-8.101,2.405-9.683,5.19v-4.43h-5.253v30.125
		h5.253V25.568c0-4.746,2.911-8.797,7.975-8.797c4.43,0,6.835,2.152,6.835,8.671v17.594h5.252V24.113z M148.201,16.455
		c4.747,0,7.658,3.228,8.101,8.544h-16.898C139.974,19.746,143.581,16.455,148.201,16.455 M157.758,34.112
		c-1.076,1.772-3.734,5.127-8.987,5.127c-6.646,0-9.43-5.127-9.557-10.063h22.531v-1.139c0-8.987-4.494-15.822-13.544-15.822
		c-8.291,0-14.303,6.392-14.303,15.632c0,10.063,5.759,15.948,14.366,15.948c8.228,0,12.152-5.189,13.291-6.961L157.758,34.112z
		 M103.077,43.036h5.253V25.442c0-4.873,3.164-8.734,7.215-8.734c2.405,0,4.367,0.823,5.379,3.544
		c0.443,1.266,0.696,3.038,0.696,5.57v17.214h5.253V23.86c0-2.279-0.253-4.051-0.696-5.506c-1.329-4.304-4.62-6.203-8.734-6.203
		c-4.999,0-8.544,2.785-9.999,5.696c-1.266-3.797-4.24-5.696-8.607-5.696c-4.051,0-7.721,2.279-9.051,5.19v-4.43h-5.252v30.125
		h5.252V25.442c0-4.873,3.165-8.734,7.215-8.734c2.405,0,4.367,0.823,5.38,3.544c0.443,1.266,0.696,3.038,0.696,5.57V43.036z
		 M63.649,16.455c4.747,0,7.658,3.228,8.101,8.544H54.852C55.422,19.746,59.029,16.455,63.649,16.455 M73.206,34.112
		c-1.076,1.772-3.734,5.127-8.987,5.127c-6.645,0-9.43-5.127-9.557-10.063h22.531v-1.139c0-8.987-4.493-15.822-13.544-15.822
		c-8.29,0-14.303,6.392-14.303,15.632c0,10.063,5.759,15.948,14.367,15.948c8.227,0,12.151-5.189,13.29-6.961L73.206,34.112z
		 M64.852,0l-4.367,8.101h4.62L71.56,0H64.852z M42.006,0h-5.253v43.036h5.253V0z M15.869,16.455c4.746,0,7.657,3.228,8.1,8.544
		H7.071C7.641,19.746,11.249,16.455,15.869,16.455 M25.425,34.112c-1.076,1.772-3.734,5.127-8.987,5.127
		c-6.645,0-9.43-5.127-9.556-10.063h22.53v-1.139c0-8.987-4.493-15.822-13.543-15.822c-8.291,0-14.304,6.392-14.304,15.632
		c0,10.063,5.76,15.948,14.367,15.948c8.227,0,12.151-5.189,13.29-6.961L25.425,34.112z M17.071,0l-4.367,8.101h4.62L23.78,0H17.071
		z"/>
</g>
</svg>