<?xml version="1.0" encoding="utf-8"?>
<!-- Generator: Adobe Illustrator 13.0.0, SVG Export Plug-In . SVG Version: 6.00 Build 14948)  -->
<!DOCTYPE svg PUBLIC "-//W3C//DTD SVG 1.1//EN" "http://www.w3.org/Graphics/SVG/1.1/DTD/svg11.dtd">
<svg version="1.1" id="_x32_d_views" xmlns="http://www.w3.org/2000/svg" xmlns:xlink="http://www.w3.org/1999/xlink" x="0px"
	 y="0px" width="455.5px" height="310.5px" viewBox="0 0 455.5 310.5" enable-background="new 0 0 455.5 310.5"
	 xml:space="preserve">
<line fill="none" stroke="#000000" stroke-width="0.5" x1="290.25" y1="0.25" x2="290.25" y2="125.25"/>
<rect x="265.25" y="45.25" fill="#FFFFFF" width="50" height="35"/>
<line fill="none" stroke="#000000" stroke-width="0.5" x1="0.75" y1="175.25" x2="250.25" y2="175.25"/>
<line fill="none" stroke="#000000" stroke-width="0.5" x1="290.25" y1="220.25" x2="290.25" y2="310.25"/>
<text transform="matrix(1 0 0 1 115.9102 170.25)"><tspan x="0" y="0" font-family="'ArialMT'" font-size="12">72’’</tspan><tspan x="-10.336" y="19" font-family="'ArialMT'" font-size="12">183 cm</tspan></text>
<text transform="matrix(1 0 0 1 280.9102 60.25)"><tspan x="0" y="0" font-family="'ArialMT'" font-size="12">36’’</tspan><tspan x="-6.999" y="12" font-family="'ArialMT'" font-size="12">91 cm</tspan></text>
<rect x="265.25" y="245.25" fill="#FFFFFF" width="50" height="35"/>
<text transform="matrix(1 0 0 1 280.9102 261.25)"><tspan x="0" y="0" font-family="'ArialMT'" font-size="12">27’’</tspan><tspan x="-6.999" y="12" font-family="'ArialMT'" font-size="12">69 cm</tspan></text>
<g>
	<line fill="none" stroke="#000000" stroke-width="0.5" x1="125.612" y1="221.451" x2="125.612" y2="310.25"/>
	<line fill="none" stroke="#000000" stroke-width="0.5" x1="125.612" y1="221.451" x2="28.108" y2="221.451"/>
	<line fill="none" stroke="#000000" stroke-width="0.5" x1="28.108" y1="284.131" x2="28.108" y2="310.25"/>
	<line fill="none" stroke="#000000" stroke-width="0.5" x1="125.612" y1="284.131" x2="28.108" y2="284.131"/>
	<line fill="none" stroke="#000000" stroke-width="0.5" x1="28.108" y1="310.25" x2="125.612" y2="310.25"/>
	<line fill="none" stroke="#000000" stroke-width="0.5" x1="28.108" y1="263.239" x2="28.108" y2="284.131"/>
	<line fill="none" stroke="#000000" stroke-width="0.5" x1="125.612" y1="263.239" x2="28.108" y2="263.239"/>
	<line fill="none" stroke="#000000" stroke-width="0.5" x1="0.25" y1="221.451" x2="0.25" y2="310.25"/>
	<line fill="none" stroke="#000000" stroke-width="0.5" x1="28.108" y1="221.451" x2="0.25" y2="221.451"/>
	<line fill="none" stroke="#000000" stroke-width="0.5" x1="28.108" y1="263.239" x2="28.108" y2="221.451"/>
	<line fill="none" stroke="#000000" stroke-width="0.5" x1="0.25" y1="310.25" x2="28.108" y2="310.25"/>
	<line fill="none" stroke="#000000" stroke-width="0.5" x1="250.975" y1="310.25" x2="223.116" y2="310.25"/>
	<line fill="none" stroke="#000000" stroke-width="0.5" x1="223.116" y1="263.239" x2="223.116" y2="221.451"/>
	<line fill="none" stroke="#000000" stroke-width="0.5" x1="223.116" y1="221.451" x2="250.975" y2="221.451"/>
	<line fill="none" stroke="#000000" stroke-width="0.5" x1="250.975" y1="221.451" x2="250.975" y2="310.25"/>
	<line fill="none" stroke="#000000" stroke-width="0.5" x1="125.612" y1="263.239" x2="223.116" y2="263.239"/>
	<line fill="none" stroke="#000000" stroke-width="0.5" x1="223.116" y1="263.239" x2="223.116" y2="284.131"/>
	<line fill="none" stroke="#000000" stroke-width="0.5" x1="223.116" y1="310.25" x2="125.612" y2="310.25"/>
	<line fill="none" stroke="#000000" stroke-width="0.5" x1="125.612" y1="284.131" x2="223.116" y2="284.131"/>
	<line fill="none" stroke="#000000" stroke-width="0.5" x1="223.116" y1="284.131" x2="223.116" y2="310.25"/>
	<line fill="none" stroke="#000000" stroke-width="0.5" x1="125.612" y1="221.451" x2="223.116" y2="221.451"/>
</g>
<g>
	<line fill="none" stroke="#000000" stroke-width="0.5" x1="455.25" y1="221.451" x2="455.25" y2="310.25"/>
	<line fill="none" stroke="#000000" stroke-width="0.5" x1="455.25" y1="310.25" x2="329.89" y2="310.25"/>
	<line fill="none" stroke="#000000" stroke-width="0.5" x1="329.89" y1="221.451" x2="455.25" y2="221.451"/>
	<line fill="none" stroke="#000000" stroke-width="0.5" x1="329.89" y1="221.451" x2="329.89" y2="310.25"/>
</g>
<g>
	<line fill="none" stroke="#000000" stroke-width="0.5" x1="28.108" y1="28.108" x2="0.25" y2="0.25"/>
	<line fill="none" stroke="#000000" stroke-width="0.5" x1="125.612" y1="0.25" x2="28.108" y2="0.25"/>
	<line fill="none" stroke="#000000" stroke-width="0.5" x1="125.612" y1="28.108" x2="28.108" y2="28.108"/>
	<line fill="none" stroke="#000000" stroke-width="0.5" x1="125.612" y1="125.613" x2="28.108" y2="125.613"/>
	<line fill="none" stroke="#000000" stroke-width="0.5" x1="0.25" y1="0.25" x2="0.25" y2="125.613"/>
	<line fill="none" stroke="#000000" stroke-width="0.5" x1="28.108" y1="0.25" x2="0.25" y2="0.25"/>
	<line fill="none" stroke="#000000" stroke-width="0.5" x1="28.108" y1="28.108" x2="28.108" y2="125.613"/>
	<line fill="none" stroke="#000000" stroke-width="0.5" x1="28.108" y1="125.613" x2="0.25" y2="125.613"/>
	<line fill="none" stroke="#000000" stroke-width="0.5" x1="125.612" y1="0.25" x2="125.612" y2="125.613"/>
	<line fill="none" stroke="#000000" stroke-width="0.5" x1="223.116" y1="125.613" x2="250.975" y2="125.613"/>
	<line fill="none" stroke="#000000" stroke-width="0.5" x1="223.116" y1="28.108" x2="223.116" y2="125.613"/>
	<line fill="none" stroke="#000000" stroke-width="0.5" x1="223.116" y1="0.25" x2="250.975" y2="0.25"/>
	<line fill="none" stroke="#000000" stroke-width="0.5" x1="250.975" y1="0.25" x2="250.975" y2="125.613"/>
	<line fill="none" stroke="#000000" stroke-width="0.5" x1="125.612" y1="125.613" x2="223.116" y2="125.613"/>
	<line fill="none" stroke="#000000" stroke-width="0.5" x1="125.612" y1="28.108" x2="223.116" y2="28.108"/>
	<line fill="none" stroke="#000000" stroke-width="0.5" x1="125.612" y1="0.25" x2="223.116" y2="0.25"/>
	<line fill="none" stroke="#000000" stroke-width="0.5" x1="223.116" y1="28.108" x2="250.975" y2="0.25"/>
</g>
</svg>
