<?xml version="1.0" encoding="utf-8"?>
<!-- Generator: Adobe Illustrator 13.0.0, SVG Export Plug-In . SVG Version: 6.00 Build 14948)  -->
<!DOCTYPE svg PUBLIC "-//W3C//DTD SVG 1.1//EN" "http://www.w3.org/Graphics/SVG/1.1/DTD/svg11.dtd">
<svg version="1.1" xmlns="http://www.w3.org/2000/svg" xmlns:xlink="http://www.w3.org/1999/xlink" x="0px" y="0px" width="455.5px"
	 height="310.5px" viewBox="0 0 455.5 310.5" enable-background="new 0 0 455.5 310.5" xml:space="preserve">
<g id="dimensions">
	<line fill="none" stroke="#000000" stroke-width="0.5" x1="285.25" y1="0.25" x2="285.25" y2="130.25"/>
	<rect x="260.25" y="50.25" fill="#FFFFFF" width="50" height="35"/>
	<line fill="none" stroke="#000000" stroke-width="0.5" x1="0.25" y1="175.25" x2="240.25" y2="175.25"/>
	<line fill="none" stroke="#000000" stroke-width="0.5" x1="285.25" y1="215.25" x2="285.25" y2="310.25"/>
	<text transform="matrix(1 0 0 1 110.9102 170.25)"><tspan x="0" y="0" font-family="'ArialMT'" font-size="12">64’’</tspan><tspan x="-10.336" y="19" font-family="'ArialMT'" font-size="12">163 cm</tspan></text>
	<text transform="matrix(1 0 0 1 275.9102 65.25)"><tspan x="0" y="0" font-family="'ArialMT'" font-size="12">34’’</tspan><tspan x="-6.999" y="12" font-family="'ArialMT'" font-size="12">86 cm</tspan></text>
	<rect x="260.25" y="245.25" fill="#FFFFFF" width="50" height="35"/>
	<text transform="matrix(1 0 0 1 275.9102 260.25)"><tspan x="0" y="0" font-family="'ArialMT'" font-size="12">25’’</tspan><tspan x="-6.999" y="12" font-family="'ArialMT'" font-size="12">64 cm</tspan></text>
</g>
<g id="_x32_seater">
	<g>
		<line fill="none" stroke="#000000" stroke-width="0.5" x1="223.298" y1="261.104" x2="242.2" y2="261.104"/>
		<line fill="none" stroke="#000000" stroke-width="0.5" x1="242.2" y1="310.25" x2="242.2" y2="261.104"/>
		<line fill="none" stroke="#000000" stroke-width="0.5" x1="223.298" y1="310.25" x2="242.2" y2="310.25"/>
		<line fill="none" stroke="#000000" stroke-width="0.5" x1="0.25" y1="261.104" x2="223.298" y2="261.104"/>
		<line fill="none" stroke="#000000" stroke-width="0.5" x1="0.25" y1="310.25" x2="223.298" y2="310.25"/>
		<line fill="none" stroke="#000000" stroke-width="0.5" x1="0.25" y1="215.738" x2="166.591" y2="215.738"/>
		<line fill="none" stroke="#000000" stroke-width="0.5" x1="166.591" y1="261.104" x2="166.591" y2="215.738"/>
		<line fill="none" stroke="#000000" stroke-width="0.5" x1="0.25" y1="215.738" x2="0.25" y2="310.25"/>
	</g>
	<g>
		<path fill="none" stroke="#000000" stroke-width="0.5" d="M326.714,257.323c0,2.215,1.567,3.78,3.783,3.78"/>
		<line fill="none" stroke="#000000" stroke-width="0.5" x1="326.714" y1="219.519" x2="326.714" y2="257.323"/>
		<path fill="none" stroke="#000000" stroke-width="0.5" d="M364.519,257.323c0,2.215-1.564,3.78-3.78,3.78"/>
		<line fill="none" stroke="#000000" stroke-width="0.5" x1="364.519" y1="257.323" x2="364.519" y2="219.519"/>
		<path fill="none" stroke="#000000" stroke-width="0.5" d="M360.738,215.738c2.216,0,3.78,1.565,3.78,3.78"/>
		<line fill="none" stroke="#000000" stroke-width="0.5" x1="360.738" y1="215.738" x2="330.497" y2="215.738"/>
		<path fill="none" stroke="#000000" stroke-width="0.5" d="M330.497,215.738c-2.216,0-3.783,1.565-3.783,3.78"/>
		<rect x="326.714" y="261.104" fill="none" stroke="#000000" stroke-width="0.5" width="128.536" height="49.146"/>
	</g>
	<g>
		<polyline fill="none" stroke="#000000" stroke-width="0.5" points="0.25,38.055 166.592,38.055 166.592,0.25 		"/>
		<path fill="none" stroke="#000000" stroke-width="0.5" d="M242.201,109.883c0,11.073-7.829,18.903-18.902,18.903"/>
		<polyline fill="none" stroke="#000000" stroke-width="0.5" points="223.299,0.25 0.25,0.25 0.25,128.786 223.299,128.786 		"/>
		<line fill="none" stroke="#000000" stroke-width="0.5" x1="242.201" y1="109.883" x2="242.201" y2="19.152"/>
		<path fill="none" stroke="#000000" stroke-width="0.5" d="M223.299,0.25c11.073,0,18.902,7.829,18.902,18.902"/>
	</g>
</g>
</svg>
