<?xml version="1.0" encoding="utf-8"?>
<!-- Generator: Adobe Illustrator 13.0.0, SVG Export Plug-In . SVG Version: 6.00 Build 14948)  -->
<!DOCTYPE svg PUBLIC "-//W3C//DTD SVG 1.1//EN" "http://www.w3.org/Graphics/SVG/1.1/DTD/svg11.dtd">
<svg version="1.1" id="_x32_d-views" xmlns="http://www.w3.org/2000/svg" xmlns:xlink="http://www.w3.org/1999/xlink" x="0px"
	 y="0px" width="450.5px" height="310.5px" viewBox="0 0 450.5 310.5" enable-background="new 0 0 450.5 310.5"
	 xml:space="preserve">
<line fill="none" stroke="#000000" stroke-width="0.5" x1="300.25" y1="0.25" x2="300.25" y2="102.25"/>
<rect x="275.25" y="30.25" fill="#FFFFFF" width="50" height="35"/>
<line fill="none" stroke="#000000" stroke-width="0.5" x1="0.25" y1="160.25" x2="260.25" y2="160.25"/>
<line fill="none" stroke="#000000" stroke-width="0.5" x1="300.25" y1="220.25" x2="300.25" y2="310.25"/>
<text transform="matrix(1 0 0 1 115.9102 155.25)"><tspan x="0" y="0" font-family="'ArialMT'" font-size="12">79’’</tspan><tspan x="-10.336" y="19" font-family="'ArialMT'" font-size="12">201 cm</tspan></text>
<text transform="matrix(1 0 0 1 290.9102 45.25)"><tspan x="0" y="0" font-family="'ArialMT'" font-size="12">33’’</tspan><tspan x="-6.999" y="12" font-family="'ArialMT'" font-size="12">84 cm</tspan></text>
<rect x="275.25" y="245.25" fill="#FFFFFF" width="50" height="35"/>
<text transform="matrix(1 0 0 1 290.9102 260.25)"><tspan x="0" y="0" font-family="'ArialMT'" font-size="12">28’’</tspan><tspan x="-6.999" y="12" font-family="'ArialMT'" font-size="12">71 cm</tspan></text>
<g>
	<line fill="none" stroke="#000000" stroke-width="0.5" x1="258.848" y1="10.07" x2="10.068" y2="10.07"/>
	<line fill="none" stroke="#000000" stroke-width="0.5" x1="258.848" y1="41.167" x2="10.068" y2="41.167"/>
	<line fill="none" stroke="#000000" stroke-width="0.5" x1="258.848" y1="72.264" x2="10.068" y2="72.264"/>
	<line fill="none" stroke="#000000" stroke-width="0.5" x1="258.848" y1="103.363" x2="10.068" y2="103.363"/>
	<rect x="0.25" y="0.25" fill="none" stroke="#000000" stroke-width="0.5" width="258.598" height="103.113"/>
	<line fill="none" stroke="#000000" stroke-width="0.5" x1="10.068" y1="0.25" x2="10.068" y2="103.363"/>
	<line fill="none" stroke="#000000" stroke-width="0.5" x1="41.167" y1="10.07" x2="41.167" y2="103.363"/>
	<line fill="none" stroke="#000000" stroke-width="0.5" x1="72.264" y1="10.07" x2="72.264" y2="103.363"/>
	<line fill="none" stroke="#000000" stroke-width="0.5" x1="103.361" y1="10.07" x2="103.361" y2="103.363"/>
	<line fill="none" stroke="#000000" stroke-width="0.5" x1="134.458" y1="10.07" x2="134.458" y2="103.363"/>
	<line fill="none" stroke="#000000" stroke-width="0.5" x1="165.555" y1="10.07" x2="165.555" y2="103.363"/>
	<line fill="none" stroke="#000000" stroke-width="0.5" x1="196.654" y1="10.07" x2="196.654" y2="103.363"/>
	<line fill="none" stroke="#000000" stroke-width="0.5" x1="227.749" y1="10.07" x2="227.749" y2="103.363"/>
	<line fill="none" stroke="#000000" stroke-width="0.5" x1="258.848" y1="10.07" x2="258.848" y2="103.363"/>
</g>
<g>
	<line fill="none" stroke="#000000" stroke-width="0.5" x1="443.366" y1="310.25" x2="443.366" y2="302.473"/>
	<line fill="none" stroke="#000000" stroke-width="0.5" x1="431.907" y1="302.473" x2="431.907" y2="310.25"/>
	<line fill="none" stroke="#000000" stroke-width="0.5" x1="431.907" y1="310.25" x2="443.366" y2="310.25"/>
	<line fill="none" stroke="#000000" stroke-width="0.5" x1="361.532" y1="310.25" x2="361.532" y2="302.473"/>
	<line fill="none" stroke="#000000" stroke-width="0.5" x1="350.073" y1="302.473" x2="350.073" y2="310.25"/>
	<line fill="none" stroke="#000000" stroke-width="0.5" x1="350.073" y1="310.25" x2="361.532" y2="310.25"/>
	<rect x="342.225" y="218.594" fill="none" stroke="#000000" stroke-width="0.5" width="108.025" height="83.879"/>
</g>
<g>
	<line fill="none" stroke="#000000" stroke-width="0.5" x1="13.342" y1="259.922" x2="258.848" y2="259.922"/>
	<polyline fill="none" stroke="#000000" stroke-width="0.5" points="258.848,279.559 13.342,279.559 13.342,219.001 	"/>
	<rect x="0.25" y="219.001" fill="none" stroke="#000000" stroke-width="0.5" width="258.598" height="83.472"/>
	<line fill="none" stroke="#000000" stroke-width="0.5" x1="241.661" y1="310.25" x2="253.118" y2="310.25"/>
	<line fill="none" stroke="#000000" stroke-width="0.5" x1="253.118" y1="310.25" x2="253.118" y2="302.473"/>
	<line fill="none" stroke="#000000" stroke-width="0.5" x1="241.661" y1="302.473" x2="241.661" y2="310.25"/>
	<line fill="none" stroke="#000000" stroke-width="0.5" x1="5.979" y1="310.25" x2="17.438" y2="310.25"/>
	<line fill="none" stroke="#000000" stroke-width="0.5" x1="17.438" y1="310.25" x2="17.438" y2="302.473"/>
	<line fill="none" stroke="#000000" stroke-width="0.5" x1="5.979" y1="302.473" x2="5.979" y2="310.25"/>
</g>
</svg>
