<?xml version="1.0" encoding="UTF-8"?>
<svg xmlns="http://www.w3.org/2000/svg" xmlns:xlink="http://www.w3.org/1999/xlink" width="1728pt" height="2592pt" viewBox="0 0 1728 2592" version="1.1">
<g id="surface1">
<path style="fill-rule:nonzero;fill:rgb(13.729858%,12.159729%,12.548828%);fill-opacity:1;stroke-width:0.84;stroke-linecap:butt;stroke-linejoin:miter;stroke:rgb(13.729858%,12.159729%,12.548828%);stroke-opacity:1;stroke-miterlimit:4;" d="M 0.000025 -0.00111875 C -1.839819 -14.653462 -3.683569 -29.309712 -5.523413 -43.965962 C -14.433569 -119.422994 -14.636694 -194.868306 -6.132788 -270.3019 C 6.183619 -313.356587 34.035181 -357.094869 58.382837 -392.719869 C 81.625025 -421.751119 104.867212 -450.786275 128.1094 -479.821431 C 170.585962 -527.462056 223.722681 -556.266744 287.531275 -566.2394 C 348.433619 -575.399556 409.335962 -584.559712 470.2344 -593.719869 C 653.144556 -603.462056 836.175806 -609.399556 1019.332056 -611.528462 C 1110.195338 -610.204244 1365.410181 -635.477681 1405.992213 -494.001119 C 1407.460963 -481.1769 1408.933619 -468.352681 1410.402369 -455.524556 C 1423.035181 -392.930806 1423.761744 -329.813619 1412.582056 -266.172994 C 1400.773463 -224.446431 1388.960963 -182.723775 1377.152369 -141.001119 C 1360.066431 -120.243306 1350.246119 -97.071431 1347.687525 -71.493306 C 1333.207056 12.209819 1303.437525 102.088725 1253.718775 171.97935 C 1232.898463 195.194194 1212.082056 218.409038 1191.261744 241.623881 C 1160.488306 263.608256 1126.574244 271.276225 1089.523463 264.627788 C 976.51565 263.5731 859.292994 267.748881 746.777369 258.846538 C 636.164088 250.100444 535.535181 207.037944 426.144556 195.139506 C 368.51565 188.869975 307.027369 202.299663 251.925806 180.873881 C 202.324244 161.584819 151.121119 133.338725 103.750025 108.612163 C 75.589869 93.909038 53.683619 66.147319 28.632837 46.991069 C 18.714869 39.409038 -5.121069 29.272319 0.000025 12.065288 " transform="matrix(1,0,0,-1,159.9531,1405.0106)"/>
<path style="fill-rule:nonzero;fill:rgb(13.729858%,12.159729%,12.548828%);fill-opacity:1;stroke-width:1.257;stroke-linecap:butt;stroke-linejoin:miter;stroke:rgb(13.729858%,12.159729%,12.548828%);stroke-opacity:1;stroke-miterlimit:4;" d="M -0.00001875 -0.000025 C 16.070294 -0.0703375 30.316388 6.35935 42.738263 19.281225 C 123.60545 66.539037 208.507794 140.8281 248.242169 227.531225 C 272.5742 280.617162 288.624981 345.804662 303.363263 402.210912 C 315.843731 449.98435 316.582013 486.289037 306.707013 534.414037 C 286.265606 634.054662 243.183575 727.882787 153.374981 778.499975 C 93.578106 812.195287 51.738263 841.367162 -22.160175 832.85935 C -37.265644 831.249975 -51.683612 827.312475 -65.417987 821.04685 C -80.851581 813.906225 -89.386737 800.273412 -103.062519 792.79685 C -119.851581 783.617162 -137.496112 788.6406 -154.421894 779.960912 C -177.878925 767.937475 -180.636737 745.187475 -199.367206 728.874975 C -234.015644 698.687475 -279.445331 695.656225 -297.816425 646.679662 C -308.261737 618.820287 -292.093769 595.968725 -293.441425 567.281225 C -294.785175 538.67185 -301.324237 510.749975 -301.70705 481.67185 C -302.273456 438.73435 -294.007831 402.031225 -282.414081 360.79685 C -272.992206 327.29685 -251.01955 305.601537 -238.792987 274.499975 C -218.882831 223.85935 -194.449237 159.835912 -152.445331 121.101537 C -138.941425 108.648412 -124.093769 106.42185 -113.507831 92.499975 C -103.351581 79.1406 -104.664081 66.8281 -88.851581 53.1406 C -72.097675 38.632787 -50.484394 29.117162 -31.343769 18.093725 " transform="matrix(1,0,0,-1,1238.3633,1288.5781)"/>
<path style="fill-rule:nonzero;fill:rgb(13.729858%,12.159729%,12.548828%);fill-opacity:1;stroke-width:1.6;stroke-linecap:butt;stroke-linejoin:miter;stroke:rgb(13.729858%,12.159729%,12.548828%);stroke-opacity:1;stroke-miterlimit:4;" d="M -0.0000125 -0.0000375 C 70.363269 124.36715 69.613269 277.328087 61.722644 416.015587 C 60.72655 433.476525 65.335925 539.937462 50.5703 557.609337 C 41.406238 568.5859 24.300769 571.67965 11.546863 577.031212 C -119.21095 631.984337 -349.156262 753.30465 -445.843762 580.249962 C -471.484387 534.343712 -488.996106 482.218712 -511.664075 434.515587 C -553.484387 346.5234 -543.734387 260.039025 -491.046887 176.843712 C -443.953137 102.499962 -356.390637 41.937462 -276.082044 10.414025 C -230.500012 -7.484413 -182.1797 -15.906288 -135.441419 -30.265663 C -107.261731 -38.937538 -44.58595 -67.406288 -24.820325 -26.679725 " transform="matrix(1,0,0,-1,701.9922,1241.5234)"/>
<path style="fill-rule:nonzero;fill:rgb(13.729858%,12.159729%,12.548828%);fill-opacity:1;stroke-width:1;stroke-linecap:butt;stroke-linejoin:miter;stroke:rgb(13.729858%,12.159729%,12.548828%);stroke-opacity:1;stroke-miterlimit:4;" d="M -0.0002625 -0.0000375 C -29.074481 10.882775 -35.133075 -26.8516 -36.230731 -45.50785 C -37.844012 -72.906287 -26.144794 -78.19535 2.308331 -72.484412 C 20.152081 -68.906287 26.38255 -55.3516 32.722394 -37.992225 C 40.956769 -15.437537 35.38255 -7.843787 14.398175 -0.0000375 " transform="matrix(1,0,0,-1,1580.8362,1807.8359)"/>
<path style=" stroke:none;fill-rule:nonzero;fill:rgb(13.729858%,12.159729%,12.548828%);fill-opacity:1;" d="M 1462.679688 463.320312 C 1462.582031 463.695312 1462.257812 464.253906 1461.515625 464.449219 C 1460.679688 464.675781 1460.101562 464.269531 1459.882812 463.683594 L 1463.808594 462.628906 C 1463.792969 462.523438 1463.757812 462.394531 1463.726562 462.28125 C 1463.277344 460.597656 1462 459.539062 1460.179688 460.027344 C 1458.535156 460.464844 1457.660156 461.929688 1458.125 463.65625 C 1458.621094 465.511719 1460.148438 466.246094 1461.769531 465.808594 C 1463.285156 465.402344 1463.859375 464.34375 1464.058594 463.792969 Z M 1460.484375 461.199219 C 1461.167969 461.015625 1461.691406 461.347656 1461.898438 461.976562 L 1459.589844 462.59375 C 1459.457031 462.007812 1459.824219 461.375 1460.484375 461.199219 M 1466.195312 458.414062 C 1464.65625 458.828125 1463.949219 460.320312 1464.402344 462 C 1464.867188 463.738281 1466.171875 464.628906 1467.738281 464.210938 C 1468.503906 464.003906 1469 463.5 1469.1875 463.128906 L 1469.324219 463.636719 L 1471.015625 463.183594 L 1468.839844 455.070312 L 1467.148438 455.523438 L 1467.976562 458.617188 C 1467.609375 458.355469 1466.996094 458.199219 1466.195312 458.414062 M 1468.628906 460.867188 C 1468.886719 461.828125 1468.554688 462.625 1467.800781 462.828125 C 1466.976562 463.050781 1466.382812 462.550781 1466.113281 461.539062 C 1465.851562 460.554688 1466.148438 459.804688 1466.933594 459.59375 C 1467.6875 459.390625 1468.371094 459.90625 1468.628906 460.867188 M 1475.839844 462.039062 C 1477.382812 461.628906 1478.085938 460.136719 1477.636719 458.453125 C 1477.167969 456.714844 1475.863281 455.824219 1474.289062 456.246094 C 1473.535156 456.449219 1473.035156 456.953125 1472.847656 457.328125 L 1472.078125 454.453125 L 1470.386719 454.90625 L 1472.5 462.785156 L 1474.191406 462.332031 L 1474.054688 461.835938 C 1474.527344 462.15625 1475.167969 462.21875 1475.839844 462.039062 M 1473.40625 459.585938 C 1473.148438 458.625 1473.480469 457.828125 1474.234375 457.625 C 1475.058594 457.40625 1475.652344 457.90625 1475.921875 458.914062 C 1476.183594 459.898438 1475.890625 460.648438 1475.101562 460.859375 C 1474.347656 461.0625 1473.664062 460.550781 1473.40625 459.585938 M 1486.210938 456.28125 L 1488.828125 455.578125 L 1488.402344 453.980469 L 1485.78125 454.679688 L 1485.058594 451.992188 L 1483.449219 452.421875 L 1484.171875 455.113281 L 1481.539062 455.820312 L 1481.96875 457.417969 L 1484.597656 456.710938 L 1485.308594 459.355469 L 1486.917969 458.921875 Z M 1497.574219 456.214844 C 1499.113281 455.804688 1499.820312 454.3125 1499.367188 452.628906 C 1498.902344 450.890625 1497.597656 450 1496.019531 450.421875 C 1495.265625 450.625 1494.765625 451.128906 1494.582031 451.503906 L 1494.445312 450.992188 L 1492.753906 451.445312 L 1494.792969 459.046875 L 1496.484375 458.59375 L 1495.789062 456.011719 C 1496.261719 456.332031 1496.902344 456.394531 1497.574219 456.214844 M 1495.136719 453.765625 C 1494.878906 452.800781 1495.214844 452.003906 1495.96875 451.800781 C 1496.789062 451.582031 1497.382812 452.082031 1497.65625 453.089844 C 1497.917969 454.074219 1497.621094 454.824219 1496.835938 455.039062 C 1496.082031 455.238281 1495.394531 454.726562 1495.136719 453.765625 M 1504.789062 449.910156 C 1504.453125 448.660156 1503.445312 448.457031 1502.03125 448.835938 C 1500.476562 449.253906 1499.640625 450.210938 1500.003906 451.464844 L 1501.570312 451.058594 C 1501.417969 450.503906 1501.679688 450.171875 1502.273438 450.011719 C 1502.851562 449.855469 1503.144531 450.027344 1503.257812 450.445312 L 1503.28125 450.539062 C 1503.328125 450.710938 1503.289062 450.746094 1503.003906 450.886719 L 1501.902344 451.378906 C 1500.785156 451.890625 1500.09375 452.511719 1500.378906 453.566406 C 1500.683594 454.710938 1501.628906 455.128906 1502.84375 454.804688 C 1503.738281 454.5625 1504.082031 454.222656 1504.261719 453.878906 L 1504.277344 453.875 C 1504.5 454.25 1504.976562 454.21875 1505.460938 454.089844 C 1505.742188 454.015625 1505.988281 453.925781 1506.230469 453.808594 L 1505.96875 452.835938 L 1505.890625 452.855469 C 1505.648438 452.921875 1505.570312 452.820312 1505.476562 452.472656 Z M 1503.789062 452.476562 C 1503.945312 453.058594 1503.617188 453.417969 1503.0625 453.566406 C 1502.574219 453.699219 1502.183594 453.589844 1502.0625 453.136719 C 1501.9375 452.664062 1502.316406 452.460938 1502.835938 452.210938 C 1503.417969 451.929688 1503.488281 451.863281 1503.601562 451.78125 Z M 1510.660156 452.710938 C 1512.199219 452.296875 1512.90625 450.804688 1512.453125 449.125 C 1511.988281 447.382812 1510.683594 446.492188 1509.105469 446.917969 C 1508.351562 447.117188 1507.855469 447.625 1507.667969 447.996094 L 1507.53125 447.488281 L 1505.839844 447.941406 L 1507.878906 455.542969 L 1509.570312 455.089844 L 1508.875 452.503906 C 1509.347656 452.824219 1509.988281 452.890625 1510.660156 452.710938 M 1508.222656 450.257812 C 1507.964844 449.296875 1508.300781 448.496094 1509.054688 448.296875 C 1509.875 448.074219 1510.46875 448.574219 1510.742188 449.582031 C 1511.003906 450.570312 1510.707031 451.320312 1509.921875 451.53125 C 1509.167969 451.730469 1508.484375 451.21875 1508.222656 450.257812 M 1512.820312 446.070312 L 1514.296875 451.585938 L 1515.988281 451.132812 L 1515.300781 448.570312 C 1515.226562 448.292969 1515.179688 448.03125 1515.183594 447.808594 C 1515.1875 447.308594 1515.425781 446.910156 1516.078125 446.738281 C 1516.226562 446.695312 1516.441406 446.664062 1516.640625 446.660156 L 1516.207031 445.039062 C 1516.132812 445.046875 1516.074219 445.0625 1516.003906 445.078125 C 1515.226562 445.289062 1514.726562 445.917969 1514.6875 446.375 L 1514.488281 445.625 Z M 1518.742188 444.484375 L 1517.039062 444.941406 L 1518.515625 450.457031 L 1520.21875 450 Z M 1518.105469 442.121094 L 1516.402344 442.574219 L 1516.847656 444.230469 L 1518.550781 443.777344 Z M 1519.589844 441.722656 L 1521.703125 449.601562 L 1523.394531 449.148438 L 1522.925781 447.398438 L 1523.324219 446.757812 L 1525.46875 448.59375 L 1527.554688 448.035156 L 1524.242188 445.308594 L 1525.914062 442.5625 L 1523.675781 443.160156 L 1522.402344 445.453125 L 1521.28125 441.269531 Z M 1531.832031 442.664062 C 1531.496094 441.414062 1530.488281 441.210938 1529.074219 441.589844 C 1527.519531 442.007812 1526.683594 442.964844 1527.042969 444.21875 L 1528.609375 443.8125 C 1528.460938 443.257812 1528.71875 442.925781 1529.3125 442.765625 C 1529.890625 442.613281 1530.1875 442.78125 1530.296875 443.199219 L 1530.324219 443.292969 C 1530.371094 443.464844 1530.328125 443.5 1530.042969 443.640625 L 1528.945312 444.132812 C 1527.828125 444.644531 1527.136719 445.265625 1527.421875 446.320312 C 1527.726562 447.464844 1528.671875 447.882812 1529.886719 447.558594 C 1530.78125 447.320312 1531.125 446.976562 1531.304688 446.632812 L 1531.316406 446.628906 C 1531.542969 447.003906 1532.015625 446.972656 1532.503906 446.84375 C 1532.78125 446.769531 1533.03125 446.679688 1533.273438 446.5625 L 1533.011719 445.589844 L 1532.929688 445.613281 C 1532.6875 445.675781 1532.609375 445.574219 1532.515625 445.226562 Z M 1530.832031 445.230469 C 1530.988281 445.8125 1530.660156 446.171875 1530.101562 446.320312 C 1529.617188 446.453125 1529.226562 446.34375 1529.105469 445.890625 C 1528.976562 445.417969 1529.359375 445.214844 1529.875 444.964844 C 1530.460938 444.683594 1530.53125 444.617188 1530.644531 444.535156 Z M 1530.832031 445.230469 "/>
</g>
</svg>
