<?xml version="1.0" encoding="UTF-8"?>
<svg xmlns="http://www.w3.org/2000/svg" xmlns:xlink="http://www.w3.org/1999/xlink" width="1728pt" height="2592pt" viewBox="0 0 1728 2592" version="1.1">
<g id="surface1">
<path style=" stroke:none;fill-rule:nonzero;fill:rgb(93.292236%,15.174866%,13.412476%);fill-opacity:1;" d="M 568.800781 2210.40625 C 639.90625 2226.96875 724.8125 2216.75 796.832031 2220.9375 C 854.277344 2224.3125 922.199219 2240.1875 980.972656 2231.90625 C 1020.253906 2226.375 1058.019531 2204.4375 1091.335938 2184.21875 C 1115.269531 2169.96875 1137.554688 2153.5 1158.1875 2134.78125 C 1185.679688 2115.71875 1215.046875 2100.21875 1246.292969 2088.28125 C 1295.257812 2062.3125 1294.761719 2038.65625 1299.183594 1983.65625 C 1305.304688 1907.5 1296.964844 1834.09375 1295.269531 1758.125 C 1293.234375 1666.875 1286.320312 1552.9375 1340.761719 1474.8125 C 1374.265625 1426.71875 1381.410156 1366.375 1396.785156 1310.09375 C 1426.449219 1201.46875 1433.601562 1097.09375 1423.910156 983.59375 C 1416.941406 901.96875 1397.59375 825.28125 1367.742188 749.34375 C 1344.21875 689.46875 1326.097656 623.09375 1297.078125 565.78125 C 1284.210938 541.28125 1267.785156 519.40625 1247.804688 500.15625 C 1230.113281 479.09375 1212.605469 457.84375 1195.28125 436.46875 C 1170.945312 416.46875 1144.078125 400.625 1114.679688 388.90625 C 1077.195312 369.75 1038.910156 352.3125 999.820312 336.65625 C 931.035156 311.09375 852.703125 301.65625 779.125 308.53125 C 754.433594 310.8125 735.105469 328.9375 711.171875 335.4375 C 675.441406 345.125 640.019531 351.5 604.195312 362.0625 C 546.207031 379.21875 491.9375 392.6875 455.394531 445.84375 C 431.175781 487.90625 418.605469 533.1875 417.6875 581.6875 C 412.21875 635 398.316406 686.09375 375.976562 735 C 334.007812 849.15625 280.1875 961.25 246.308594 1078.125 C 221.164062 1164.90625 209.054688 1253.84375 208.054688 1343.96875 C 207.71875 1374.34375 193.539062 1458.46875 212.867188 1486.34375 C 246.988281 1505.125 283.738281 1516.3125 323.113281 1519.875 C 364.277344 1530.375 405.71875 1539.59375 447.445312 1547.5 C 469.023438 1553.875 460.226562 1548.9375 473.175781 1563.0625 C 476.445312 1573.96875 481.539062 1584 488.460938 1593.15625 C 500.457031 1612.375 512.109375 1631.8125 523.421875 1651.4375 C 538.101562 1678.34375 536.640625 1696.09375 531.738281 1727.96875 C 518.609375 1813.28125 457.445312 1896.5 481.269531 1985.59375 C 492.042969 2025.875 522.859375 2053.8125 554.398438 2080.8125 "/>
<path style=" stroke:none;fill-rule:nonzero;fill:rgb(100%,100%,100%);fill-opacity:1;" d="M 820.800781 799.1875 C 824.527344 770.9375 774.277344 766.84375 755.691406 769.90625 C 738.09375 772.84375 722.496094 794.21875 733.886719 814.125 C 742.804688 829.75 814.273438 851.25 820.800781 820.8125 "/>
<path style=" stroke:none;fill-rule:nonzero;fill:rgb(93.292236%,15.174866%,13.412476%);fill-opacity:1;" d="M 335.453125 1935.351562 C 335.289062 1935.703125 334.875 1936.199219 334.109375 1936.265625 C 333.25 1936.339844 332.75 1935.84375 332.636719 1935.226562 L 336.6875 1934.871094 C 336.6875 1934.761719 336.675781 1934.628906 336.667969 1934.511719 C 336.515625 1932.777344 335.441406 1931.511719 333.566406 1931.675781 C 331.867188 1931.824219 330.75 1933.113281 330.90625 1934.894531 C 331.074219 1936.808594 332.449219 1937.792969 334.125 1937.648438 C 335.6875 1937.511719 336.4375 1936.566406 336.730469 1936.058594 Z M 333.65625 1932.882812 C 334.363281 1932.820312 334.820312 1933.238281 334.914062 1933.894531 L 332.535156 1934.101562 C 332.507812 1933.5 332.976562 1932.941406 333.65625 1932.882812 M 339.769531 1931.132812 C 338.179688 1931.273438 337.226562 1932.617188 337.375 1934.351562 C 337.53125 1936.144531 338.664062 1937.25 340.277344 1937.109375 C 341.066406 1937.039062 341.648438 1936.628906 341.894531 1936.292969 L 341.941406 1936.820312 L 343.683594 1936.667969 L 342.953125 1928.300781 L 341.210938 1928.453125 L 341.488281 1931.644531 C 341.171875 1931.324219 340.59375 1931.0625 339.769531 1931.132812 M 341.738281 1933.972656 C 341.828125 1934.964844 341.359375 1935.691406 340.582031 1935.757812 C 339.734375 1935.832031 339.234375 1935.238281 339.144531 1934.199219 C 339.054688 1933.183594 339.476562 1932.492188 340.292969 1932.421875 C 341.066406 1932.355469 341.652344 1932.976562 341.738281 1933.972656 M 348.636719 1936.378906 C 350.226562 1936.238281 351.179688 1934.894531 351.027344 1933.160156 C 350.871094 1931.363281 349.738281 1930.261719 348.113281 1930.402344 C 347.335938 1930.472656 346.757812 1930.882812 346.507812 1931.21875 L 346.25 1928.253906 L 344.503906 1928.40625 L 345.214844 1936.53125 L 346.960938 1936.378906 L 346.914062 1935.867188 C 347.324219 1936.265625 347.941406 1936.4375 348.636719 1936.378906 M 346.664062 1933.539062 C 346.578125 1932.546875 347.042969 1931.820312 347.820312 1931.75 C 348.671875 1931.679688 349.167969 1932.273438 349.257812 1933.3125 C 349.347656 1934.328125 348.925781 1935.015625 348.113281 1935.089844 C 347.335938 1935.15625 346.75 1934.53125 346.664062 1933.539062 M 359.847656 1932.507812 L 362.550781 1932.269531 L 362.40625 1930.621094 L 359.703125 1930.859375 L 359.460938 1928.085938 L 357.800781 1928.230469 L 358.042969 1931.003906 L 355.328125 1931.242188 L 355.472656 1932.890625 L 358.1875 1932.652344 L 358.425781 1935.375 L 360.085938 1935.230469 Z M 371.050781 1934.417969 C 372.640625 1934.277344 373.59375 1932.933594 373.441406 1931.199219 C 373.285156 1929.402344 372.152344 1928.300781 370.527344 1928.441406 C 369.75 1928.511719 369.171875 1928.921875 368.921875 1929.257812 L 368.875 1928.730469 L 367.132812 1928.882812 L 367.820312 1936.722656 L 369.5625 1936.570312 L 369.328125 1933.90625 C 369.738281 1934.304688 370.355469 1934.476562 371.050781 1934.417969 M 369.078125 1931.578125 C 368.992188 1930.585938 369.457031 1929.859375 370.234375 1929.789062 C 371.085938 1929.71875 371.582031 1930.3125 371.671875 1931.351562 C 371.761719 1932.367188 371.339844 1933.054688 370.527344 1933.128906 C 369.75 1933.195312 369.164062 1932.570312 369.078125 1931.578125 M 379.25 1929.460938 C 379.140625 1928.167969 378.179688 1927.796875 376.722656 1927.925781 C 375.117188 1928.0625 374.128906 1928.859375 374.265625 1930.160156 L 375.878906 1930.03125 C 375.832031 1929.457031 376.144531 1929.179688 376.753906 1929.125 C 377.351562 1929.070312 377.613281 1929.289062 377.648438 1929.722656 L 377.65625 1929.816406 C 377.675781 1929.996094 377.628906 1930.023438 377.320312 1930.109375 L 376.152344 1930.40625 C 374.964844 1930.714844 374.179688 1931.203125 374.273438 1932.292969 C 374.375 1933.476562 375.234375 1934.050781 376.488281 1933.941406 C 377.410156 1933.859375 377.808594 1933.585938 378.046875 1933.277344 L 378.058594 1933.273438 C 378.214844 1933.683594 378.6875 1933.738281 379.1875 1933.691406 C 379.476562 1933.667969 379.734375 1933.621094 379.996094 1933.550781 L 379.90625 1932.546875 L 379.824219 1932.554688 C 379.570312 1932.574219 379.515625 1932.460938 379.484375 1932.101562 Z M 377.820312 1931.8125 C 377.875 1932.410156 377.488281 1932.710938 376.914062 1932.761719 C 376.410156 1932.804688 376.046875 1932.632812 376.007812 1932.164062 C 375.964844 1931.675781 376.375 1931.542969 376.925781 1931.386719 C 377.550781 1931.210938 377.628906 1931.15625 377.757812 1931.097656 Z M 384.546875 1933.238281 C 386.136719 1933.097656 387.089844 1931.75 386.9375 1930.015625 C 386.78125 1928.222656 385.648438 1927.117188 384.023438 1927.261719 C 383.246094 1927.328125 382.667969 1927.742188 382.417969 1928.074219 L 382.375 1927.550781 L 380.628906 1927.703125 L 381.316406 1935.542969 L 383.058594 1935.390625 L 382.824219 1932.726562 C 383.234375 1933.121094 383.851562 1933.296875 384.546875 1933.238281 M 382.574219 1930.398438 C 382.488281 1929.40625 382.953125 1928.679688 383.730469 1928.609375 C 384.582031 1928.535156 385.078125 1929.132812 385.167969 1930.171875 C 385.257812 1931.1875 384.835938 1931.875 384.023438 1931.945312 C 383.246094 1932.015625 382.660156 1931.390625 382.574219 1930.398438 M 387.824219 1927.074219 L 388.324219 1932.761719 L 390.066406 1932.609375 L 389.835938 1929.96875 C 389.8125 1929.679688 389.8125 1929.414062 389.851562 1929.195312 C 389.941406 1928.703125 390.25 1928.351562 390.917969 1928.292969 C 391.074219 1928.28125 391.292969 1928.285156 391.484375 1928.316406 L 391.339844 1926.644531 C 391.265625 1926.640625 391.207031 1926.644531 391.136719 1926.652344 C 390.335938 1926.722656 389.730469 1927.253906 389.613281 1927.699219 L 389.546875 1926.921875 Z M 393.933594 1926.539062 L 392.175781 1926.691406 L 392.675781 1932.382812 L 394.429688 1932.226562 Z M 393.71875 1924.101562 L 391.964844 1924.253906 L 392.113281 1925.960938 L 393.867188 1925.808594 Z M 395.25 1923.964844 L 395.960938 1932.09375 L 397.707031 1931.941406 L 397.546875 1930.136719 L 398.054688 1929.574219 L 399.84375 1931.753906 L 401.996094 1931.566406 L 399.207031 1928.304688 L 401.332031 1925.890625 L 399.023438 1926.09375 L 397.371094 1928.128906 L 396.992188 1923.8125 Z M 407.140625 1927.019531 C 407.027344 1925.730469 406.066406 1925.355469 404.609375 1925.484375 C 403.007812 1925.625 402.019531 1926.421875 402.15625 1927.722656 L 403.769531 1927.59375 C 403.71875 1927.019531 404.03125 1926.738281 404.640625 1926.683594 C 405.242188 1926.632812 405.5 1926.851562 405.539062 1927.28125 L 405.546875 1927.375 C 405.5625 1927.554688 405.515625 1927.582031 405.210938 1927.671875 L 404.042969 1927.964844 C 402.855469 1928.273438 402.066406 1928.765625 402.160156 1929.855469 C 402.265625 1931.035156 403.121094 1931.609375 404.378906 1931.5 C 405.296875 1931.421875 405.695312 1931.144531 405.933594 1930.835938 L 405.945312 1930.835938 C 406.101562 1931.242188 406.574219 1931.296875 407.078125 1931.253906 C 407.363281 1931.226562 407.625 1931.179688 407.882812 1931.109375 L 407.796875 1930.105469 L 407.710938 1930.113281 C 407.460938 1930.136719 407.402344 1930.019531 407.371094 1929.660156 Z M 405.710938 1929.371094 C 405.761719 1929.972656 405.378906 1930.269531 404.804688 1930.320312 C 404.300781 1930.363281 403.9375 1930.191406 403.894531 1929.726562 C 403.851562 1929.234375 404.261719 1929.101562 404.816406 1928.945312 C 405.441406 1928.769531 405.519531 1928.714844 405.648438 1928.65625 Z M 405.710938 1929.371094 "/>
</g>
</svg>
