<?xml version="1.0" encoding="UTF-8"?>
<svg xmlns="http://www.w3.org/2000/svg" xmlns:xlink="http://www.w3.org/1999/xlink" width="1728pt" height="2592pt" viewBox="0 0 1728 2592" version="1.1">
<g id="surface1">
<path style=" stroke:none;fill-rule:nonzero;fill:rgb(13.729858%,12.159729%,12.548828%);fill-opacity:1;" d="M 1536.460938 597.410156 C 1535.992188 484.414062 1420.996094 434.542969 1337.125 386.503906 C 1302.890625 366.898438 1268.691406 342.320312 1229.398438 333.75 C 1199.898438 330.445312 1170.300781 328.847656 1140.601562 328.957031 C 1110.527344 325.511719 1080.371094 324.027344 1050.125 324.5 C 1021.042969 327.066406 995.578125 339.425781 967.246094 344.347656 C 923.367188 351.96875 875.183594 344.871094 830.773438 344.636719 C 801.171875 344.164062 771.8125 346.765625 742.695312 352.4375 C 704.0625 357.484375 675.90625 377.613281 658.230469 412.820312 C 629.792969 468.78125 599.878906 523.9375 568.484375 578.296875 C 538.097656 628.253906 506.183594 677.210938 472.742188 725.171875 C 432.742188 785.582031 397.390625 844.890625 378.605469 915.855469 C 358.304688 992.535156 358.738281 1072.105469 345.78125 1149.765625 C 337.1875 1192.933594 326 1235.414062 312.21875 1277.214844 C 303.957031 1332.523438 296.113281 1387.890625 288.691406 1443.316406 C 275.691406 1509.175781 268.429688 1575.648438 266.898438 1642.742188 C 266.648438 1681.667969 271.324219 1719.921875 280.925781 1757.507812 C 307.300781 1923.078125 357.90625 2110.847656 474.957031 2239.207031 C 520.820312 2289.5 564.328125 2283.054688 622.289062 2303.683594 C 722.636719 2339.398438 823.363281 2409.925781 932.574219 2414.09375 C 969.339844 2415.5 1007.105469 2411.335938 1043.246094 2405.121094 C 1108.160156 2393.964844 1182.191406 2397.15625 1243.875 2373.160156 C 1319.503906 2343.742188 1361.476562 2281.800781 1404.222656 2217.453125 C 1426.183594 2188.171875 1445.875 2157.433594 1463.296875 2125.234375 C 1482.867188 2077.0625 1499.203125 2027.808594 1512.3125 1977.480469 C 1531.734375 1912.867188 1554.039062 1850.0625 1576.417969 1786.488281 C 1606.199219 1701.871094 1611.421875 1613.949219 1621.4375 1525.414062 C 1637.890625 1379.976562 1663.066406 1234.734375 1666.40625 1088.265625 C 1668.605469 991.917969 1668.574219 881.03125 1637.835938 789.027344 C 1623.527344 746.199219 1611.097656 707.015625 1601.144531 663.066406 C 1597.429688 646.652344 1595.019531 619.136719 1587.027344 603.980469 C 1578.535156 587.875 1576.414062 598.421875 1564.886719 590.582031 C 1556.449219 584.839844 1555.671875 578.660156 1549.078125 570.019531 C 1539.773438 557.824219 1520.167969 550.742188 1522.058594 532.609375 "/>
<path style=" stroke:none;fill-rule:nonzero;fill:rgb(100%,100%,100%);fill-opacity:1;" d="M 642.300781 1433.617188 C 618.144531 1435.125 603.625 1481.445312 612.5 1499.90625 C 625.125 1526.175781 671.574219 1527.113281 693.523438 1513.308594 C 732.414062 1488.84375 697.8125 1428.40625 656.699219 1433.617188 "/>
<path style=" stroke:none;fill-rule:nonzero;fill:rgb(100%,100%,100%);fill-opacity:1;" d="M 675.652344 1631.730469 C 639.1875 1636.6875 598.753906 1608.003906 568.597656 1644.207031 C 544.679688 1672.917969 567.199219 1696.878906 595.089844 1709.46875 C 616.976562 1719.34375 677.308594 1732.050781 689.875 1704.242188 C 700.078125 1681.65625 681.585938 1658.398438 682.851562 1638.929688 "/>
<path style=" stroke:none;fill-rule:nonzero;fill:rgb(100%,100%,100%);fill-opacity:1;" d="M 1235.492188 1868.9375 C 1242.125 1833.5 1250.199219 1798.34375 1259.714844 1763.53125 C 1274.019531 1709.9375 1285.207031 1655.71875 1293.277344 1600.875 C 1294.917969 1576.4375 1292.632812 1552.375 1286.421875 1528.6875 C 1277.699219 1463.09375 1279.132812 1397.4375 1290.726562 1331.75 C 1309.226562 1206.65625 1313.78125 1081.09375 1304.390625 955.09375 C 1309.632812 913.4375 1296.632812 884.71875 1265.386719 868.9375 C 1256.09375 863.125 1248.46875 855.65625 1242.527344 846.59375 C 1239.636719 835.46875 1246.574219 834.34375 1240.636719 820.3125 C 1226.050781 799.53125 1207.496094 783 1184.964844 770.71875 C 1168.777344 759.03125 1151.074219 751.125 1131.859375 747 C 1121.746094 750 1111.9375 753.78125 1102.425781 758.375 C 1088.039062 763.3125 1075.101562 770.75 1063.613281 780.6875 C 1016.097656 822.96875 1000.828125 891.625 986.78125 950.15625 C 975.617188 1000.625 964.183594 1051.0625 952.484375 1101.4375 C 932.285156 1190.5625 909.8125 1279.9375 895.777344 1370.28125 C 890.15625 1397.21875 887.859375 1424.40625 888.878906 1451.84375 C 896.410156 1490.40625 900.773438 1529.375 901.980469 1568.6875 C 899.300781 1614.40625 888.527344 1658.125 869.65625 1699.875 C 847.769531 1781 841.046875 1863.5 849.488281 1947.34375 C 855.289062 2012.46875 874.933594 2072.75 908.425781 2128.1875 C 927.230469 2153.59375 948.617188 2155.96875 972.578125 2135.3125 C 1001.117188 2121.5625 1029.164062 2106.90625 1056.714844 2091.28125 C 1093.199219 2070.4375 1134.734375 2049.3125 1165.074219 2019.59375 C 1178.023438 2006.90625 1188.199219 1990.53125 1200.445312 1977.65625 C 1203.242188 1976.84375 1205.460938 1975.15625 1207.101562 1972.5625 C 1214.628906 1963.53125 1213.585938 1947.9375 1217.242188 1937.375 C 1220.441406 1928.09375 1227.378906 1914.5625 1232.765625 1906.40625 C 1236.34375 1901 1245.261719 1898.25 1242.691406 1890.53125 "/>
<path style=" stroke:none;fill-rule:nonzero;fill:rgb(13.729858%,12.159729%,12.548828%);fill-opacity:1;" d="M 1584.644531 2002.515625 C 1584.375 2002.789062 1583.816406 2003.113281 1583.074219 2002.914062 C 1582.238281 2002.691406 1581.9375 2002.050781 1582.042969 2001.429688 L 1585.96875 2002.484375 C 1586.007812 2002.382812 1586.042969 2002.253906 1586.074219 2002.140625 C 1586.523438 2000.457031 1585.949219 1998.902344 1584.128906 1998.414062 C 1582.484375 1997.972656 1580.996094 1998.800781 1580.53125 2000.53125 C 1580.035156 2002.386719 1580.988281 2003.78125 1582.613281 2004.21875 C 1584.128906 2004.625 1585.15625 2003.992188 1585.605469 2003.617188 Z M 1583.804688 1999.578125 C 1584.488281 1999.761719 1584.777344 2000.3125 1584.640625 2000.960938 L 1582.332031 2000.34375 C 1582.511719 1999.769531 1583.144531 1999.402344 1583.804688 1999.578125 M 1590.144531 2000.023438 C 1588.601562 1999.613281 1587.246094 2000.550781 1586.796875 2002.234375 C 1586.332031 2003.972656 1587.015625 2005.398438 1588.582031 2005.816406 C 1589.347656 2006.023438 1590.03125 2005.832031 1590.378906 2005.601562 L 1590.242188 2006.113281 L 1591.933594 2006.566406 L 1594.105469 1998.453125 L 1592.414062 1998 L 1591.585938 2001.09375 C 1591.398438 2000.683594 1590.945312 2000.238281 1590.144531 2000.023438 M 1591.027344 2003.367188 C 1590.769531 2004.328125 1590.082031 2004.855469 1589.328125 2004.652344 C 1588.503906 2004.429688 1588.238281 2003.699219 1588.511719 2002.691406 C 1588.773438 2001.707031 1589.40625 2001.203125 1590.195312 2001.414062 C 1590.949219 2001.617188 1591.285156 2002.402344 1591.027344 2003.367188 M 1596.683594 2007.988281 C 1598.226562 2008.402344 1599.582031 2007.460938 1600.03125 2005.78125 C 1600.5 2004.039062 1599.8125 2002.617188 1598.234375 2002.191406 C 1597.480469 2001.992188 1596.796875 2002.179688 1596.449219 2002.410156 L 1597.21875 1999.535156 L 1595.527344 1999.082031 L 1593.417969 2006.964844 L 1595.109375 2007.414062 L 1595.242188 2006.917969 C 1595.488281 2007.433594 1596.011719 2007.808594 1596.683594 2007.988281 M 1595.800781 2004.644531 C 1596.058594 2003.683594 1596.746094 2003.160156 1597.5 2003.359375 C 1598.324219 2003.582031 1598.589844 2004.3125 1598.316406 2005.320312 C 1598.054688 2006.304688 1597.421875 2006.808594 1596.632812 2006.597656 C 1595.878906 2006.394531 1595.542969 2005.609375 1595.800781 2004.644531 M 1608.542969 2008.183594 L 1611.164062 2008.886719 L 1611.589844 2007.289062 L 1608.972656 2006.585938 L 1609.691406 2003.898438 L 1608.082031 2003.464844 L 1607.363281 2006.152344 L 1604.730469 2005.449219 L 1604.300781 2007.046875 L 1606.933594 2007.753906 L 1606.226562 2010.394531 L 1607.835938 2010.828125 Z M 1618.417969 2013.8125 C 1619.957031 2014.222656 1621.3125 2013.285156 1621.765625 2011.601562 C 1622.230469 2009.863281 1621.546875 2008.4375 1619.96875 2008.015625 C 1619.214844 2007.816406 1618.53125 2008.003906 1618.183594 2008.234375 L 1618.320312 2007.722656 L 1616.628906 2007.269531 L 1614.589844 2014.871094 L 1616.28125 2015.324219 L 1616.976562 2012.742188 C 1617.222656 2013.253906 1617.742188 2013.632812 1618.417969 2013.8125 M 1617.535156 2010.46875 C 1617.792969 2009.507812 1618.480469 2008.984375 1619.234375 2009.183594 C 1620.058594 2009.40625 1620.320312 2010.136719 1620.050781 2011.144531 C 1619.785156 2012.128906 1619.15625 2012.632812 1618.367188 2012.421875 C 1617.613281 2012.21875 1617.277344 2011.433594 1617.535156 2010.46875 M 1627.820312 2011.957031 C 1628.152344 2010.707031 1627.378906 2010.027344 1625.964844 2009.648438 C 1624.414062 2009.230469 1623.210938 2009.644531 1622.894531 2010.910156 L 1624.457031 2011.34375 C 1624.605469 2010.785156 1624.996094 2010.628906 1625.585938 2010.789062 C 1626.167969 2010.941406 1626.335938 2011.238281 1626.226562 2011.65625 L 1626.199219 2011.746094 C 1626.152344 2011.921875 1626.101562 2011.933594 1625.78125 2011.910156 L 1624.585938 2011.785156 C 1623.363281 2011.671875 1622.453125 2011.863281 1622.171875 2012.917969 C 1621.863281 2014.066406 1622.472656 2014.898438 1623.6875 2015.222656 C 1624.582031 2015.464844 1625.050781 2015.339844 1625.378906 2015.132812 L 1625.390625 2015.132812 C 1625.398438 2015.570312 1625.824219 2015.785156 1626.3125 2015.914062 C 1626.589844 2015.988281 1626.851562 2016.035156 1627.117188 2016.054688 L 1627.378906 2015.082031 L 1627.296875 2015.058594 C 1627.054688 2014.996094 1627.039062 2014.867188 1627.132812 2014.519531 Z M 1625.671875 2013.679688 C 1625.515625 2014.261719 1625.050781 2014.410156 1624.492188 2014.261719 C 1624.007812 2014.128906 1623.722656 2013.84375 1623.84375 2013.390625 C 1623.972656 2012.914062 1624.402344 2012.929688 1624.976562 2012.972656 C 1625.621094 2013.023438 1625.714844 2012.996094 1625.855469 2012.984375 Z M 1631.503906 2017.316406 C 1633.042969 2017.730469 1634.398438 2016.789062 1634.851562 2015.109375 C 1635.316406 2013.371094 1634.632812 2011.945312 1633.054688 2011.523438 C 1632.300781 2011.320312 1631.617188 2011.511719 1631.269531 2011.738281 L 1631.40625 2011.230469 L 1629.714844 2010.777344 L 1627.679688 2018.378906 L 1629.367188 2018.832031 L 1630.0625 2016.246094 C 1630.308594 2016.761719 1630.832031 2017.136719 1631.503906 2017.316406 M 1630.621094 2013.976562 C 1630.878906 2013.011719 1631.566406 2012.488281 1632.320312 2012.691406 C 1633.144531 2012.910156 1633.40625 2013.640625 1633.136719 2014.648438 C 1632.875 2015.636719 1632.242188 2016.136719 1631.453125 2015.925781 C 1630.699219 2015.722656 1630.363281 2014.9375 1630.621094 2013.976562 M 1636.691406 2012.648438 L 1635.214844 2018.164062 L 1636.90625 2018.617188 L 1637.59375 2016.054688 C 1637.667969 2015.777344 1637.757812 2015.527344 1637.871094 2015.335938 C 1638.125 2014.90625 1638.53125 2014.679688 1639.179688 2014.851562 C 1639.332031 2014.894531 1639.535156 2014.972656 1639.707031 2015.066406 L 1640.140625 2013.445312 C 1640.074219 2013.417969 1640.015625 2013.402344 1639.945312 2013.382812 C 1639.171875 2013.175781 1638.421875 2013.46875 1638.15625 2013.847656 L 1638.359375 2013.09375 Z M 1642.613281 2014.234375 L 1640.910156 2013.777344 L 1639.433594 2019.292969 L 1641.136719 2019.75 Z M 1643.25 2011.867188 L 1641.546875 2011.414062 L 1641.101562 2013.070312 L 1642.804688 2013.523438 Z M 1644.734375 2012.265625 L 1642.621094 2020.148438 L 1644.3125 2020.601562 L 1644.78125 2018.851562 L 1645.445312 2018.496094 L 1646.386719 2021.15625 L 1648.472656 2021.714844 L 1646.964844 2017.695312 L 1649.789062 2016.15625 L 1647.550781 2015.558594 L 1645.300781 2016.902344 L 1646.421875 2012.71875 Z M 1654.859375 2019.203125 C 1655.195312 2017.953125 1654.421875 2017.273438 1653.007812 2016.894531 C 1651.453125 2016.476562 1650.253906 2016.886719 1649.9375 2018.15625 L 1651.5 2018.589844 C 1651.648438 2018.03125 1652.035156 2017.875 1652.628906 2018.03125 C 1653.207031 2018.1875 1653.378906 2018.484375 1653.265625 2018.898438 L 1653.242188 2018.992188 C 1653.195312 2019.167969 1653.140625 2019.179688 1652.824219 2019.15625 L 1651.628906 2019.03125 C 1650.402344 2018.914062 1649.496094 2019.109375 1649.214844 2020.164062 C 1648.90625 2021.3125 1649.515625 2022.144531 1650.730469 2022.46875 C 1651.625 2022.710938 1652.09375 2022.585938 1652.421875 2022.378906 L 1652.433594 2022.378906 C 1652.441406 2022.816406 1652.867188 2023.03125 1653.355469 2023.160156 C 1653.632812 2023.234375 1653.894531 2023.28125 1654.160156 2023.300781 L 1654.421875 2022.328125 L 1654.339844 2022.304688 C 1654.097656 2022.242188 1654.082031 2022.113281 1654.175781 2021.765625 Z M 1652.710938 2020.925781 C 1652.554688 2021.507812 1652.09375 2021.65625 1651.535156 2021.507812 C 1651.050781 2021.375 1650.765625 2021.089844 1650.886719 2020.636719 C 1651.015625 2020.160156 1651.445312 2020.175781 1652.019531 2020.21875 C 1652.664062 2020.265625 1652.757812 2020.242188 1652.898438 2020.230469 Z M 1652.710938 2020.925781 "/>
</g>
</svg>
