<?xml version="1.0" encoding="UTF-8"?>
<svg xmlns="http://www.w3.org/2000/svg" xmlns:xlink="http://www.w3.org/1999/xlink" width="1728pt" height="2592pt" viewBox="0 0 1728 2592" version="1.1">
<g id="surface1">
<rect x="0" y="0" width="1728" height="2592" style="fill:rgb(26.777649%,65.756226%,23.118591%);fill-opacity:1;stroke:none;"/>
<path style=" stroke:none;fill-rule:nonzero;fill:rgb(57.000732%,85.53772%,84.312439%);fill-opacity:1;" d="M 385.128906 2302.0625 C 384.5625 2299.625 390.304688 2224.71875 389.261719 2252.78125 C 393.078125 2150.21875 358.65625 2052.3125 346.417969 1951.625 C 337.734375 1880.1875 337.261719 1807.875 329.605469 1736.3125 C 323.738281 1681.5 317.273438 1632.5625 288.605469 1584.96875 C 247.074219 1516.0625 194.632812 1454.3125 161.128906 1380.75 C 143.546875 1342.125 130.5 1302 118.125 1261.5 C 110.679688 1234.8125 102.234375 1208.46875 92.796875 1182.4375 C 84.199219 1161.46875 76.875 1140.09375 70.824219 1118.28125 C 66.476562 1096.25 65.765625 1070.9375 64.949219 1048.59375 C 63.863281 1018.84375 68.140625 983.6875 96.304688 966.6875 C 99.417969 964.8125 109.964844 958.34375 114.8125 958.90625 C 119.667969 964.09375 124.132812 969.625 128.207031 975.46875 C 140.496094 989.28125 154.128906 1001.625 169.097656 1012.53125 C 186.945312 1026.15625 203.699219 1034.875 223.109375 1045.09375 C 270.984375 1070.34375 287.101562 1116.71875 315.453125 1159.125 C 336.117188 1190 368.828125 1227.8125 409.3125 1231.75 C 432.671875 1234.9375 450.625 1226.40625 463.175781 1206.09375 C 484.058594 1170.53125 499.511719 1132.71875 509.542969 1092.59375 L 521.234375 1030.25 C 522.101562 1004.5 522.597656 978.75 522.726562 953 C 526.71875 893.6875 540.847656 833.375 578.292969 786.46875 C 605.828125 751.96875 637.957031 718.125 668.320312 686.03125 C 686.265625 667.03125 705.863281 653.9375 731.625 648.1875 C 745.363281 645.09375 772.433594 639.5 784.066406 651.75 C 789.609375 661.34375 791.953125 671.65625 791.09375 682.71875 C 791.621094 698.46875 791.875 714.21875 791.851562 729.96875 C 791.625 808.6875 807.59375 891.875 851.886719 958.625 C 862.191406 974.15625 872.753906 993.21875 893.957031 987.71875 C 915.285156 973.625 934.59375 957.125 951.886719 938.1875 C 976.269531 913.90625 998.960938 888.125 1019.957031 860.84375 C 1036.085938 839.6875 1051.554688 805.96875 1073.25 789.0625 C 1082.339844 782 1101.414062 773.46875 1112.566406 781.625 C 1127.726562 792.6875 1131.039062 837.75 1135.441406 851.78125 C 1149.121094 895.34375 1173.308594 939.25 1199.695312 976.4375 C 1224.5625 1011.5 1262.039062 1041.8125 1297.863281 1065.09375 C 1330.09375 1086.0625 1360.503906 1096.90625 1396.660156 1080.625 C 1397.390625 1087.03125 1397.675781 1093.46875 1397.519531 1099.9375 C 1401.011719 1161.71875 1417.089844 1222.6875 1410.089844 1285.0625 C 1408.558594 1319.09375 1397.71875 1349.71875 1377.578125 1376.9375 C 1357.222656 1407.84375 1332.148438 1427.875 1326.859375 1466 C 1325.398438 1479.625 1324.675781 1493.28125 1324.699219 1506.96875 C 1324.984375 1538.3125 1321.203125 1561.875 1314.082031 1593.25 C 1304.597656 1633.375 1295.359375 1673.5625 1286.371094 1713.78125 C 1270.257812 1771.625 1245.859375 1823.3125 1209.796875 1871.375 C 1190.058594 1895.96875 1169.789062 1920.15625 1148.984375 1943.875 C 1120.359375 1976.3125 1089.285156 2002.3125 1057.921875 2031.8125 C 1027.996094 2054.90625 1008.023438 2084.75 998.003906 2121.3125 C 993.085938 2143.90625 988.167969 2166.5 983.253906 2189.09375 C 978.46875 2228.9375 967.246094 2266.75 949.585938 2302.5625 C 922.980469 2331.625 891.175781 2353.28125 854.164062 2367.5625 C 810.710938 2387.5625 775.597656 2396.6875 728.46875 2393.3125 C 684.867188 2390.1875 641.359375 2383.96875 597.53125 2384.875 "/>
<path style=" stroke:none;fill-rule:nonzero;fill:rgb(57.000732%,85.53772%,84.312439%);fill-opacity:1;" d="M 804.273438 116.59375 C 766.25 130.8125 728.273438 145.15625 690.34375 159.625 C 640.746094 177.8125 590.265625 193.03125 538.898438 205.25 C 494.945312 217.03125 454.089844 235.78125 416.332031 261.5 C 374.039062 288.46875 331.71875 315.40625 289.375 342.3125 C 266.769531 354.0625 244.472656 366.375 222.484375 379.25 C 185.992188 405.21875 159.566406 444.8125 166.660156 490.96875 C 168.40625 502.34375 173.355469 513.21875 173.601562 524.78125 C 172.160156 540.21875 169.578125 555.5 165.855469 570.59375 C 160.898438 593.375 158.414062 616.375 158.398438 639.65625 C 158.917969 651.15625 158.992188 678.6875 173.277344 683.96875 C 184.238281 688 200.285156 676.96875 211.097656 674.90625 C 227.613281 671.75 248.492188 672.90625 264.398438 666.65625 C 319.851562 644.8125 292.398438 554.78125 286.320312 513.375 C 283.277344 505.875 283.613281 498.6875 287.332031 491.875 C 299.78125 484.03125 313.445312 479.9375 328.320312 479.5625 C 348.714844 489.71875 358.433594 507.25 357.46875 532.125 C 364.121094 562.34375 370.382812 592.65625 376.257812 623.03125 C 377.9375 635.6875 381.03125 647.96875 385.546875 659.84375 C 388.042969 661.9375 390.851562 662.34375 393.96875 661.03125 C 409.253906 661.625 424.484375 660.8125 439.660156 658.65625 C 453.414062 659.15625 464.558594 654.625 473.09375 645.0625 C 474.863281 632.90625 477.589844 621 481.277344 609.25 C 489.347656 588.5625 495.910156 567.40625 500.957031 545.75 C 505.5625 511.46875 494.457031 489.3125 475.632812 463.09375 C 510.457031 446.4375 537.554688 507.59375 545.863281 528.5 C 553.425781 547.5625 555.546875 583.875 577.082031 594.71875 C 587.214844 598.8125 597.695312 601.75 608.519531 603.46875 C 629.566406 608.15625 640.265625 613.09375 653.257812 592.34375 C 656.535156 581.09375 659.8125 569.84375 663.089844 558.59375 C 667.429688 532.375 668.089844 506.125 665.074219 479.78125 C 662.707031 470.15625 660.339844 460.53125 657.972656 450.90625 C 651.484375 436.21875 642.296875 423.5 630.414062 412.78125 C 613.136719 389.625 604.195312 340.96875 625.871094 317.25 C 643.6875 307.375 661.539062 297.59375 679.429688 287.84375 C 711.351562 266.0625 736.480469 233.21875 757.386719 201.25 C 770.460938 181.25 781.632812 159.78125 794.171875 139.78125 C 798.339844 133.15625 801.476562 124.125 804.238281 116.84375 "/>
<path style=" stroke:none;fill-rule:nonzero;fill:rgb(57.000732%,85.53772%,84.312439%);fill-opacity:1;" d="M 148.558594 1748.539062 C 148.398438 1748.890625 147.984375 1749.382812 147.21875 1749.453125 C 146.355469 1749.527344 145.855469 1749.027344 145.742188 1748.410156 L 149.792969 1748.054688 C 149.796875 1747.949219 149.785156 1747.816406 149.773438 1747.699219 C 149.621094 1745.964844 148.546875 1744.699219 146.671875 1744.863281 C 144.972656 1745.011719 143.859375 1746.300781 144.015625 1748.082031 C 144.183594 1749.996094 145.558594 1750.980469 147.230469 1750.835938 C 148.796875 1750.699219 149.542969 1749.753906 149.835938 1749.246094 Z M 146.765625 1746.070312 C 147.472656 1746.007812 147.929688 1746.425781 148.023438 1747.082031 L 145.644531 1747.289062 C 145.617188 1746.6875 146.085938 1746.128906 146.765625 1746.070312 M 152.875 1744.320312 C 151.285156 1744.457031 150.332031 1745.804688 150.484375 1747.539062 C 150.640625 1749.332031 151.773438 1750.4375 153.386719 1750.296875 C 154.175781 1750.226562 154.753906 1749.816406 155.003906 1749.480469 L 155.046875 1750.007812 L 156.792969 1749.855469 L 156.058594 1741.488281 L 154.316406 1741.640625 L 154.59375 1744.832031 C 154.277344 1744.507812 153.699219 1744.246094 152.875 1744.320312 M 154.847656 1747.15625 C 154.933594 1748.152344 154.46875 1748.878906 153.6875 1748.945312 C 152.839844 1749.019531 152.34375 1748.425781 152.25 1747.382812 C 152.164062 1746.367188 152.585938 1745.679688 153.398438 1745.609375 C 154.175781 1745.542969 154.761719 1746.164062 154.847656 1747.15625 M 161.742188 1749.566406 C 163.332031 1749.425781 164.285156 1748.078125 164.132812 1746.34375 C 163.976562 1744.550781 162.84375 1743.449219 161.21875 1743.589844 C 160.441406 1743.65625 159.863281 1744.070312 159.617188 1744.402344 L 159.355469 1741.441406 L 157.613281 1741.59375 L 158.324219 1749.71875 L 160.066406 1749.566406 L 160.023438 1749.054688 C 160.429688 1749.453125 161.046875 1749.625 161.742188 1749.566406 M 159.769531 1746.726562 C 159.683594 1745.734375 160.148438 1745.007812 160.929688 1744.9375 C 161.777344 1744.863281 162.273438 1745.460938 162.367188 1746.5 C 162.457031 1747.515625 162.035156 1748.203125 161.21875 1748.277344 C 160.441406 1748.34375 159.855469 1747.71875 159.769531 1746.726562 M 172.953125 1745.695312 L 175.65625 1745.457031 L 175.511719 1743.808594 L 172.808594 1744.042969 L 172.566406 1741.273438 L 170.90625 1741.417969 L 171.148438 1744.191406 L 168.4375 1744.425781 L 168.582031 1746.074219 L 171.292969 1745.839844 L 171.535156 1748.5625 L 173.191406 1748.417969 Z M 184.15625 1747.605469 C 185.746094 1747.464844 186.699219 1746.117188 186.546875 1744.382812 C 186.390625 1742.589844 185.257812 1741.488281 183.632812 1741.628906 C 182.855469 1741.695312 182.277344 1742.109375 182.03125 1742.441406 L 181.984375 1741.917969 L 180.242188 1742.070312 L 180.925781 1749.910156 L 182.667969 1749.757812 L 182.4375 1747.09375 C 182.84375 1747.492188 183.464844 1747.664062 184.15625 1747.605469 M 182.183594 1744.765625 C 182.097656 1743.773438 182.5625 1743.046875 183.34375 1742.976562 C 184.191406 1742.902344 184.6875 1743.5 184.78125 1744.539062 C 184.871094 1745.554688 184.449219 1746.242188 183.632812 1746.316406 C 182.855469 1746.382812 182.269531 1745.757812 182.183594 1744.765625 M 192.359375 1742.648438 C 192.246094 1741.355469 191.285156 1740.984375 189.828125 1741.109375 C 188.226562 1741.25 187.234375 1742.046875 187.375 1743.347656 L 188.988281 1743.21875 C 188.9375 1742.644531 189.25 1742.363281 189.859375 1742.3125 C 190.460938 1742.257812 190.71875 1742.476562 190.757812 1742.90625 L 190.765625 1743.003906 C 190.78125 1743.183594 190.734375 1743.210938 190.429688 1743.296875 L 189.261719 1743.59375 C 188.074219 1743.902344 187.285156 1744.390625 187.378906 1745.480469 C 187.484375 1746.664062 188.339844 1747.238281 189.59375 1747.128906 C 190.515625 1747.046875 190.914062 1746.773438 191.152344 1746.460938 L 191.164062 1746.460938 C 191.320312 1746.867188 191.792969 1746.921875 192.296875 1746.878906 C 192.582031 1746.855469 192.84375 1746.808594 193.101562 1746.738281 L 193.015625 1745.734375 L 192.929688 1745.742188 C 192.679688 1745.761719 192.621094 1745.648438 192.589844 1745.289062 Z M 190.929688 1745 C 190.980469 1745.597656 190.597656 1745.898438 190.023438 1745.949219 C 189.519531 1745.992188 189.15625 1745.820312 189.113281 1745.351562 C 189.070312 1744.863281 189.480469 1744.730469 190.035156 1744.574219 C 190.660156 1744.398438 190.738281 1744.34375 190.867188 1744.285156 Z M 197.652344 1746.421875 C 199.242188 1746.285156 200.195312 1744.9375 200.042969 1743.203125 C 199.886719 1741.410156 198.753906 1740.304688 197.128906 1740.449219 C 196.351562 1740.515625 195.773438 1740.925781 195.527344 1741.261719 L 195.480469 1740.738281 L 193.734375 1740.890625 L 194.421875 1748.730469 L 196.167969 1748.578125 L 195.933594 1745.910156 C 196.339844 1746.308594 196.960938 1746.484375 197.652344 1746.421875 M 195.679688 1743.585938 C 195.59375 1742.59375 196.0625 1741.863281 196.839844 1741.796875 C 197.6875 1741.722656 198.183594 1742.316406 198.277344 1743.359375 C 198.367188 1744.375 197.941406 1745.0625 197.128906 1745.132812 C 196.351562 1745.203125 195.769531 1744.578125 195.679688 1743.585938 M 200.933594 1740.257812 L 201.429688 1745.949219 L 203.175781 1745.796875 L 202.941406 1743.152344 C 202.917969 1742.867188 202.917969 1742.601562 202.960938 1742.382812 C 203.050781 1741.890625 203.355469 1741.539062 204.023438 1741.480469 C 204.179688 1741.46875 204.398438 1741.472656 204.59375 1741.503906 L 204.449219 1739.832031 C 204.375 1739.824219 204.3125 1739.832031 204.242188 1739.835938 C 203.441406 1739.90625 202.839844 1740.441406 202.71875 1740.886719 L 202.652344 1740.109375 Z M 207.039062 1739.726562 L 205.285156 1739.878906 L 205.78125 1745.566406 L 207.539062 1745.414062 Z M 206.828125 1737.285156 L 205.070312 1737.441406 L 205.21875 1739.148438 L 206.976562 1738.996094 Z M 208.359375 1737.152344 L 209.070312 1745.28125 L 210.8125 1745.128906 L 210.65625 1743.324219 L 211.160156 1742.761719 L 212.953125 1744.941406 L 215.105469 1744.75 L 212.3125 1741.492188 L 214.4375 1739.078125 L 212.132812 1739.28125 L 210.480469 1741.316406 L 210.101562 1737 Z M 220.246094 1740.207031 C 220.136719 1738.917969 219.175781 1738.542969 217.71875 1738.671875 C 216.117188 1738.8125 215.125 1739.609375 215.261719 1740.90625 L 216.875 1740.777344 C 216.828125 1740.203125 217.140625 1739.925781 217.75 1739.871094 C 218.347656 1739.820312 218.609375 1740.035156 218.644531 1740.46875 L 218.65625 1740.5625 C 218.671875 1740.742188 218.625 1740.769531 218.316406 1740.859375 L 217.148438 1741.152344 C 215.960938 1741.460938 215.175781 1741.953125 215.269531 1743.039062 C 215.371094 1744.222656 216.230469 1744.796875 217.484375 1744.6875 C 218.40625 1744.609375 218.804688 1744.332031 219.042969 1744.023438 L 219.054688 1744.023438 C 219.210938 1744.429688 219.683594 1744.484375 220.183594 1744.441406 C 220.472656 1744.414062 220.730469 1744.367188 220.992188 1744.296875 L 220.902344 1743.292969 L 220.820312 1743.300781 C 220.566406 1743.324219 220.511719 1743.207031 220.480469 1742.847656 Z M 218.816406 1742.558594 C 218.871094 1743.160156 218.484375 1743.457031 217.910156 1743.507812 C 217.410156 1743.550781 217.042969 1743.378906 217.003906 1742.914062 C 216.960938 1742.421875 217.371094 1742.289062 217.921875 1742.132812 C 218.546875 1741.957031 218.625 1741.902344 218.753906 1741.84375 Z M 218.816406 1742.558594 "/>
</g>
</svg>
