<?xml version="1.0" encoding="UTF-8"?>
<svg xmlns="http://www.w3.org/2000/svg" xmlns:xlink="http://www.w3.org/1999/xlink" width="1728pt" height="2592pt" viewBox="0 0 1728 2592" version="1.1">
<g id="surface1">
<rect x="0" y="0" width="1728" height="2592" style="fill:rgb(57.000732%,85.53772%,84.312439%);fill-opacity:1;stroke:none;"/>
<path style=" stroke:none;fill-rule:nonzero;fill:rgb(93.292236%,15.174866%,13.412476%);fill-opacity:1;" d="M 1166.398438 270 C 1124.164062 270 1081.929688 270.15625 1039.695312 270.03125 C 978.785156 269.875 919.894531 266.3125 860.070312 281.15625 C 806.40625 294.4375 754.265625 315.8125 701.761719 332.96875 C 676.335938 339.6875 651.753906 348.65625 628.007812 359.90625 C 602.6875 378.65625 583.054688 402.28125 569.101562 430.8125 C 562.566406 446.875 556.03125 462.96875 549.492188 479.0625 C 530.972656 534.78125 509.558594 589.375 485.257812 642.875 C 459.527344 702.65625 435.199219 763 412.273438 823.90625 C 403.421875 849.75 393.839844 875.34375 383.519531 900.625 C 367.425781 938.84375 348.984375 976.3125 330.070312 1013.15625 C 313.253906 1044.625 296.925781 1076.375 281.089844 1108.34375 C 263.550781 1148.53125 250.90625 1190.25 243.152344 1233.5 C 226.519531 1306.3125 213.957031 1379.65625 205.335938 1453.8125 C 193.261719 1557.71875 192.492188 1659.6875 198.648438 1764.125 C 202.78125 1834.1875 202.019531 1903.0625 235.914062 1966.59375 C 283.449219 2055.65625 375.019531 2126.625 464.234375 2169.6875 C 530.15625 2201.46875 606.125 2228.875 679.015625 2238.84375 C 787.832031 2253.75 899.371094 2233.6875 1008.460938 2232.25 C 1045.382812 2235.6875 1081.738281 2232.9375 1117.527344 2223.9375 C 1139.996094 2212.15625 1159.863281 2196.96875 1177.132812 2178.375 C 1227.335938 2131.84375 1277.769531 2085.625 1328.394531 2039.59375 C 1364.054688 2007.125 1396.710938 1972.6875 1425.691406 1934.0625 C 1447.398438 1907.65625 1464.277344 1878.46875 1476.320312 1846.5 C 1488.78125 1805.71875 1499.257812 1764.4375 1507.746094 1722.625 C 1526.867188 1636.21875 1541.863281 1551.5625 1542.21875 1462.6875 C 1541.246094 1388.5625 1534.925781 1314.90625 1523.261719 1241.75 C 1514.863281 1195.53125 1508.980469 1149.03125 1505.613281 1102.21875 C 1499.808594 1007.6875 1499.347656 910.90625 1501.609375 816.21875 C 1502.757812 768.15625 1503.03125 722.28125 1499.296875 674.15625 C 1495.648438 637.375 1492.410156 600.53125 1489.582031 563.65625 C 1488.675781 549.625 1485.363281 536.1875 1479.644531 523.3125 C 1469.226562 495.375 1454.917969 472.28125 1437.527344 448.15625 C 1425.058594 432.125 1413.484375 415.5 1402.796875 398.21875 C 1392.667969 380.78125 1382.453125 363.40625 1372.152344 346.09375 C 1356.125 324.84375 1335.3125 314.875 1311.117188 305.40625 C 1297.269531 300 1285.304688 299.6875 1271.34375 296.46875 C 1258.285156 293.4375 1245.335938 288.46875 1232.582031 284.40625 C 1224.375 282.5 1216.660156 279.40625 1209.445312 275.15625 C 1207.84375 273.53125 1206.132812 272.03125 1204.3125 270.65625 C 1195.347656 267.84375 1183.03125 270 1173.601562 270 "/>
<path style=" stroke:none;fill-rule:nonzero;fill:rgb(100%,100%,100%);fill-opacity:1;" d="M 896.429688 651.914062 C 872.273438 653.421875 857.753906 699.742188 866.625 718.203125 C 879.253906 744.472656 925.703125 745.410156 947.648438 731.605469 C 986.542969 707.140625 951.941406 646.703125 910.828125 651.914062 "/>
<path style=" stroke:none;fill-rule:nonzero;fill:rgb(57.000732%,85.53772%,84.312439%);fill-opacity:1;" d="M 972 1368 C 953.136719 1368.28125 934.175781 1366.445312 915.335938 1367.164062 C 869.402344 1368.925781 827.460938 1388.8125 785.964844 1407.097656 C 734.5625 1429.746094 697.058594 1470.921875 658.285156 1510.699219 C 613.121094 1557.035156 619.675781 1610.683594 618.480469 1673.027344 C 617.5625 1720.8125 615.765625 1757.292969 634.726562 1801.195312 C 647.15625 1829.96875 657.976562 1869 685.472656 1887.542969 C 705.550781 1901.078125 732.609375 1902.585938 755.550781 1908.140625 C 792.449219 1917.078125 827.273438 1915.148438 865.019531 1915.125 C 909.492188 1915.09375 961.832031 1924.050781 1005.515625 1913.460938 C 1061.53125 1899.882812 1117.898438 1858.578125 1157.496094 1818.605469 C 1199.96875 1775.734375 1223.523438 1735.402344 1225.144531 1674.578125 C 1226.460938 1625.042969 1230.179688 1568.042969 1221.617188 1518.96875 C 1207.910156 1440.390625 1198.542969 1428.953125 1130.398438 1393.199219 C 1086.253906 1370.035156 1024.222656 1368.046875 975.601562 1368 "/>
<path style=" stroke:none;fill-rule:nonzero;fill:rgb(100%,100%,100%);fill-opacity:1;" d="M 400.410156 2223.582031 C 400.191406 2223.898438 399.699219 2224.3125 398.933594 2224.246094 C 398.070312 2224.171875 397.664062 2223.59375 397.660156 2222.964844 L 401.710938 2223.320312 C 401.730469 2223.214844 401.742188 2223.082031 401.753906 2222.964844 C 401.90625 2221.230469 401.066406 2219.796875 399.191406 2219.632812 C 397.492188 2219.484375 396.171875 2220.558594 396.015625 2222.339844 C 395.847656 2224.253906 397.03125 2225.464844 398.707031 2225.609375 C 400.269531 2225.746094 401.171875 2224.949219 401.546875 2224.5 Z M 399.074219 2220.835938 C 399.78125 2220.898438 400.15625 2221.390625 400.136719 2222.050781 L 397.757812 2221.84375 C 397.835938 2221.246094 398.394531 2220.777344 399.074219 2220.835938 M 405.394531 2220.175781 C 403.804688 2220.035156 402.632812 2221.195312 402.480469 2222.929688 C 402.324219 2224.722656 403.246094 2226.007812 404.859375 2226.148438 C 405.648438 2226.21875 406.292969 2225.914062 406.59375 2225.628906 L 406.546875 2226.152344 L 408.292969 2226.304688 L 409.023438 2217.9375 L 407.277344 2217.785156 L 407 2220.976562 C 406.742188 2220.605469 406.21875 2220.246094 405.394531 2220.175781 M 406.84375 2223.3125 C 406.757812 2224.304688 406.171875 2224.941406 405.394531 2224.871094 C 404.546875 2224.796875 404.15625 2224.125 404.25 2223.085938 C 404.335938 2222.066406 404.871094 2221.464844 405.6875 2221.535156 C 406.464844 2221.601562 406.929688 2222.320312 406.84375 2223.3125 M 413.21875 2226.878906 C 414.804688 2227.019531 415.980469 2225.859375 416.132812 2224.125 C 416.289062 2222.332031 415.363281 2221.046875 413.738281 2220.90625 C 412.960938 2220.835938 412.320312 2221.140625 412.019531 2221.429688 L 412.277344 2218.464844 L 410.535156 2218.3125 L 409.824219 2226.4375 L 411.566406 2226.589844 L 411.609375 2226.078125 C 411.945312 2226.539062 412.523438 2226.820312 413.21875 2226.878906 M 411.769531 2223.742188 C 411.855469 2222.75 412.441406 2222.113281 413.21875 2222.183594 C 414.066406 2222.257812 414.453125 2222.929688 414.363281 2223.96875 C 414.273438 2224.984375 413.738281 2225.589844 412.925781 2225.519531 C 412.148438 2225.453125 411.679688 2224.734375 411.769531 2223.742188 M 424.929688 2225.015625 L 427.632812 2225.25 L 427.777344 2223.601562 L 425.074219 2223.367188 L 425.316406 2220.59375 L 423.65625 2220.449219 L 423.414062 2223.222656 L 420.699219 2222.984375 L 420.558594 2224.632812 L 423.269531 2224.871094 L 423.03125 2227.59375 L 424.691406 2227.742188 Z M 435.632812 2228.839844 C 437.222656 2228.980469 438.394531 2227.820312 438.546875 2226.085938 C 438.703125 2224.292969 437.777344 2223.007812 436.152344 2222.867188 C 435.375 2222.796875 434.734375 2223.101562 434.433594 2223.390625 L 434.476562 2222.863281 L 432.734375 2222.710938 L 432.050781 2230.550781 L 433.792969 2230.703125 L 434.027344 2228.039062 C 434.359375 2228.5 434.9375 2228.78125 435.632812 2228.839844 M 434.183594 2225.703125 C 434.269531 2224.710938 434.855469 2224.074219 435.632812 2224.144531 C 436.480469 2224.21875 436.867188 2224.890625 436.777344 2225.929688 C 436.6875 2226.949219 436.152344 2227.550781 435.339844 2227.480469 C 434.5625 2227.414062 434.09375 2226.695312 434.183594 2225.703125 M 444.570312 2225.382812 C 444.683594 2224.09375 443.800781 2223.558594 442.34375 2223.429688 C 440.742188 2223.292969 439.628906 2223.90625 439.539062 2225.207031 L 441.148438 2225.359375 C 441.199219 2224.789062 441.558594 2224.566406 442.167969 2224.621094 C 442.765625 2224.671875 442.984375 2224.929688 442.945312 2225.363281 L 442.9375 2225.457031 C 442.921875 2225.636719 442.871094 2225.65625 442.554688 2225.6875 L 441.355469 2225.777344 C 440.128906 2225.875 439.269531 2226.222656 439.175781 2227.308594 C 439.070312 2228.492188 439.816406 2229.207031 441.070312 2229.316406 C 441.988281 2229.398438 442.429688 2229.195312 442.71875 2228.933594 L 442.730469 2228.933594 C 442.8125 2229.359375 443.269531 2229.496094 443.773438 2229.542969 C 444.058594 2229.566406 444.324219 2229.566406 444.589844 2229.542969 L 444.679688 2228.535156 L 444.59375 2228.53125 C 444.34375 2228.507812 444.308594 2228.382812 444.339844 2228.023438 Z M 442.75 2227.453125 C 442.699219 2228.050781 442.269531 2228.28125 441.695312 2228.230469 C 441.191406 2228.183594 440.863281 2227.953125 440.902344 2227.484375 C 440.945312 2226.996094 441.375 2226.933594 441.945312 2226.878906 C 442.589844 2226.8125 442.679688 2226.773438 442.8125 2226.734375 Z M 449.128906 2230.023438 C 450.71875 2230.160156 451.890625 2229 452.042969 2227.265625 C 452.199219 2225.472656 451.277344 2224.1875 449.648438 2224.046875 C 448.871094 2223.976562 448.230469 2224.285156 447.929688 2224.570312 L 447.976562 2224.042969 L 446.230469 2223.890625 L 445.546875 2231.730469 L 447.289062 2231.886719 L 447.523438 2229.21875 C 447.855469 2229.683594 448.433594 2229.960938 449.128906 2230.023438 M 447.679688 2226.882812 C 447.765625 2225.890625 448.351562 2225.257812 449.128906 2225.324219 C 449.976562 2225.398438 450.363281 2226.070312 450.273438 2227.109375 C 450.183594 2228.128906 449.648438 2228.730469 448.835938 2228.660156 C 448.058594 2228.59375 447.589844 2227.878906 447.679688 2226.882812 M 453.425781 2224.519531 L 452.929688 2230.210938 L 454.671875 2230.363281 L 454.902344 2227.722656 C 454.929688 2227.433594 454.976562 2227.171875 455.054688 2226.964844 C 455.226562 2226.496094 455.589844 2226.203125 456.261719 2226.261719 C 456.417969 2226.273438 456.628906 2226.316406 456.816406 2226.382812 L 456.964844 2224.710938 C 456.890625 2224.691406 456.832031 2224.6875 456.761719 2224.679688 C 455.960938 2224.609375 455.273438 2225.03125 455.078125 2225.449219 L 455.148438 2224.671875 Z M 459.535156 2225.054688 L 457.777344 2224.902344 L 457.28125 2230.589844 L 459.035156 2230.746094 Z M 459.75 2222.617188 L 457.992188 2222.464844 L 457.84375 2224.171875 L 459.597656 2224.324219 Z M 461.277344 2222.75 L 460.566406 2230.878906 L 462.3125 2231.03125 L 462.46875 2229.226562 L 463.066406 2228.761719 L 464.453125 2231.21875 L 466.605469 2231.40625 L 464.421875 2227.710938 L 466.933594 2225.703125 L 464.628906 2225.5 L 462.644531 2227.21875 L 463.023438 2222.902344 Z M 472.457031 2227.824219 C 472.570312 2226.535156 471.691406 2226 470.234375 2225.871094 C 468.628906 2225.730469 467.519531 2226.34375 467.429688 2227.648438 L 469.039062 2227.800781 C 469.089844 2227.226562 469.445312 2227.003906 470.054688 2227.058594 C 470.65625 2227.109375 470.875 2227.371094 470.835938 2227.800781 L 470.828125 2227.898438 C 470.8125 2228.078125 470.761719 2228.097656 470.445312 2228.128906 L 469.242188 2228.21875 C 468.019531 2228.3125 467.15625 2228.660156 467.0625 2229.75 C 466.960938 2230.933594 467.703125 2231.648438 468.957031 2231.757812 C 469.878906 2231.835938 470.320312 2231.636719 470.605469 2231.371094 L 470.617188 2231.375 C 470.703125 2231.800781 471.160156 2231.9375 471.660156 2231.980469 C 471.949219 2232.007812 472.214844 2232.003906 472.480469 2231.980469 L 472.566406 2230.976562 L 472.484375 2230.96875 C 472.234375 2230.949219 472.195312 2230.824219 472.226562 2230.464844 Z M 470.640625 2229.890625 C 470.589844 2230.492188 470.15625 2230.71875 469.585938 2230.667969 C 469.082031 2230.625 468.753906 2230.390625 468.792969 2229.925781 C 468.835938 2229.433594 469.261719 2229.375 469.835938 2229.316406 C 470.480469 2229.253906 470.566406 2229.210938 470.703125 2229.175781 Z M 470.640625 2229.890625 "/>
<path style="fill:none;stroke-width:1;stroke-linecap:butt;stroke-linejoin:miter;stroke:rgb(100%,100%,100%);stroke-opacity:1;stroke-miterlimit:4;" d="M -0.00194375 -0.00173125 C -0.220694 -0.318137 -0.712881 -0.7322 -1.478506 -0.665794 C -2.341787 -0.591575 -2.748037 -0.01345 -2.751944 0.615456 L 1.298838 0.259988 C 1.318369 0.365456 1.330088 0.498269 1.341806 0.615456 C 1.49415 2.349831 0.654306 3.783425 -1.220694 3.947488 C -2.919912 4.095925 -4.240225 3.021706 -4.396475 1.240456 C -4.564444 -0.673606 -3.38085 -1.884544 -1.705069 -2.029075 C -0.142569 -2.165794 0.759775 -1.368919 1.134775 -0.9197 Z M -1.337881 2.744363 C -0.63085 2.681863 -0.25585 2.189675 -0.275381 1.529519 L -2.654287 1.73655 C -2.576162 2.334206 -2.017569 2.802956 -1.337881 2.744363 Z M 4.982431 3.404519 C 3.392588 3.545144 2.220713 2.384988 2.068369 0.650613 C 1.912119 -1.142356 2.833994 -2.427512 4.447275 -2.568137 C 5.236338 -2.63845 5.880869 -2.333762 6.18165 -2.048606 L 6.134775 -2.572044 L 7.880869 -2.724387 L 8.611338 5.6428 L 6.865244 5.795144 L 6.5879 2.603738 C 6.330088 2.974831 5.80665 3.334206 4.982431 3.404519 Z M 6.43165 0.2678 C 6.345713 -0.724387 5.759775 -1.361106 4.982431 -1.290794 C 4.134775 -1.216575 3.74415 -0.5447 3.8379 0.494363 C 3.923838 1.513894 4.458994 2.115456 5.2754 2.045144 C 6.052744 1.978738 6.517588 1.259988 6.43165 0.2678 Z M 12.80665 -3.298606 C 14.392588 -3.439231 15.568369 -2.279075 15.720713 -0.5447 C 15.876963 1.248269 14.951181 2.533425 13.326181 2.67405 C 12.548838 2.744363 11.908213 2.439675 11.607431 2.150613 L 11.865244 5.115456 L 10.123056 5.2678 L 9.412119 -2.8572 L 11.154306 -3.009544 L 11.197275 -2.497825 C 11.533213 -2.958762 12.111338 -3.240012 12.80665 -3.298606 Z M 11.357431 -0.161887 C 11.443369 0.8303 12.029306 1.467019 12.80665 1.396706 C 13.654306 1.322488 14.041025 0.650613 13.951181 -0.38845 C 13.861338 -1.404075 13.326181 -2.009544 12.513681 -1.939231 C 11.736338 -1.872825 11.267588 -1.154075 11.357431 -0.161887 Z M 24.517588 -1.435325 L 27.220713 -1.6697 L 27.365244 -0.0212625 L 24.662119 0.213113 L 24.904306 2.98655 L 23.24415 3.131081 L 23.001963 0.357644 L 20.287119 0.595925 L 20.146494 -1.052512 L 22.857431 -1.290794 L 22.61915 -4.01345 L 24.279306 -4.161887 Z M 35.220713 -5.259544 C 36.810556 -5.400169 37.982431 -4.240012 38.134775 -2.505637 C 38.291025 -0.712669 37.365244 0.572488 35.740244 0.713113 C 34.9629 0.783425 34.322275 0.478738 34.021494 0.189675 L 34.064463 0.717019 L 32.322275 0.869363 L 31.638681 -6.970481 L 33.380869 -7.122825 L 33.615244 -4.458762 C 33.947275 -4.9197 34.5254 -5.20095 35.220713 -5.259544 Z M 33.771494 -2.122825 C 33.857431 -1.130637 34.443369 -0.493919 35.220713 -0.564231 C 36.068369 -0.63845 36.455088 -1.310325 36.365244 -2.349387 C 36.2754 -3.368919 35.740244 -3.970481 34.927744 -3.900169 C 34.1504 -3.833762 33.68165 -3.115012 33.771494 -2.122825 Z M 44.158213 -1.802512 C 44.271494 -0.51345 43.388681 0.0217063 41.93165 0.150613 C 40.330088 0.287331 39.216806 -0.32595 39.126963 -1.626731 L 40.736338 -1.779075 C 40.787119 -1.208762 41.146494 -0.986106 41.755869 -1.040794 C 42.353525 -1.091575 42.572275 -1.349387 42.533213 -1.782981 L 42.5254 -1.876731 C 42.509775 -2.056419 42.458994 -2.07595 42.142588 -2.1072 L 40.943369 -2.197044 C 39.716806 -2.2947 38.857431 -2.642356 38.763681 -3.728294 C 38.658213 -4.911887 39.404306 -5.626731 40.658213 -5.736106 C 41.576181 -5.818137 42.017588 -5.615012 42.30665 -5.353294 L 42.318369 -5.353294 C 42.4004 -5.779075 42.857431 -5.915794 43.361338 -5.962669 C 43.646494 -5.986106 43.912119 -5.986106 44.177744 -5.962669 L 44.267588 -4.954856 L 44.18165 -4.95095 C 43.93165 -4.927512 43.896494 -4.802512 43.927744 -4.443137 Z M 42.3379 -3.872825 C 42.287119 -4.470481 41.857431 -4.70095 41.283213 -4.650169 C 40.779306 -4.603294 40.451181 -4.372825 40.490244 -3.904075 C 40.533213 -3.415794 40.9629 -3.353294 41.533213 -3.298606 C 42.177744 -3.2322 42.267588 -3.193137 42.4004 -3.154075 Z M 48.716806 -6.443137 C 50.30665 -6.579856 51.478525 -5.4197 51.630869 -3.685325 C 51.787119 -1.892356 50.865244 -0.6072 49.236338 -0.466575 C 48.458994 -0.396262 47.818369 -0.704856 47.517588 -0.990012 L 47.564463 -0.462669 L 45.818369 -0.310325 L 45.134775 -8.150169 L 46.876963 -8.306419 L 47.111338 -5.63845 C 47.443369 -6.103294 48.021494 -6.380637 48.716806 -6.443137 Z M 47.267588 -3.302512 C 47.353525 -2.310325 47.939463 -1.677512 48.716806 -1.743919 C 49.564463 -1.818137 49.951181 -2.490012 49.861338 -3.529075 C 49.771494 -4.548606 49.236338 -5.150169 48.423838 -5.079856 C 47.646494 -5.01345 47.177744 -4.298606 47.267588 -3.302512 Z M 53.013681 -0.939231 L 52.517588 -6.630637 L 54.259775 -6.782981 L 54.490244 -4.142356 C 54.517588 -3.853294 54.564463 -3.591575 54.642588 -3.384544 C 54.814463 -2.915794 55.177744 -2.622825 55.849619 -2.681419 C 56.005869 -2.693137 56.216806 -2.736106 56.404306 -2.802512 L 56.552744 -1.130637 C 56.478525 -1.111106 56.419931 -1.1072 56.349619 -1.099387 C 55.548838 -1.029075 54.861338 -1.45095 54.666025 -1.868919 L 54.736338 -1.091575 Z M 59.123056 -1.474387 L 57.365244 -1.322044 L 56.86915 -7.009544 L 58.623056 -7.165794 Z M 59.3379 0.963113 L 57.580088 1.115456 L 57.43165 -0.591575 L 59.185556 -0.743919 Z M 60.865244 0.8303 L 60.154306 -7.298606 L 61.9004 -7.45095 L 62.05665 -5.646262 L 62.654306 -5.181419 L 64.041025 -7.63845 L 66.193369 -7.82595 L 64.009775 -4.130637 L 66.521494 -2.122825 L 64.216806 -1.9197 L 62.232431 -3.63845 L 62.611338 0.677956 Z M 72.044931 -4.243919 C 72.158213 -2.954856 71.279306 -2.4197 69.822275 -2.290794 C 68.216806 -2.150169 67.107431 -2.76345 67.017588 -4.068137 L 68.626963 -4.220481 C 68.677744 -3.646262 69.033213 -3.423606 69.642588 -3.478294 C 70.24415 -3.529075 70.4629 -3.790794 70.423838 -4.220481 L 70.416025 -4.318137 C 70.4004 -4.497825 70.349619 -4.517356 70.033213 -4.548606 L 68.830088 -4.63845 C 67.607431 -4.7322 66.74415 -5.079856 66.6504 -6.1697 C 66.548838 -7.353294 67.291025 -8.068137 68.544931 -8.177512 C 69.466806 -8.255637 69.908213 -8.056419 70.193369 -7.790794 L 70.205088 -7.7947 C 70.291025 -8.220481 70.748056 -8.3572 71.248056 -8.400169 C 71.537119 -8.427512 71.802744 -8.423606 72.068369 -8.400169 L 72.154306 -7.396262 L 72.072275 -7.38845 C 71.822275 -7.368919 71.783213 -7.243919 71.814463 -6.884544 Z M 70.228525 -6.310325 C 70.177744 -6.911887 69.74415 -7.13845 69.173838 -7.087669 C 68.669931 -7.0447 68.341806 -6.810325 68.380869 -6.345481 C 68.423838 -5.853294 68.849619 -5.7947 69.423838 -5.736106 C 70.068369 -5.673606 70.154306 -5.630637 70.291025 -5.595481 Z M 70.228525 -6.310325 " transform="matrix(1,0,0,-1,400.4121,2223.5803)"/>
</g>
</svg>
