<?xml version="1.0" encoding="UTF-8"?>
<svg xmlns="http://www.w3.org/2000/svg" xmlns:xlink="http://www.w3.org/1999/xlink" width="1728pt" height="2592pt" viewBox="0 0 1728 2592" version="1.1">
<g id="surface1">
<path style=" stroke:none;fill-rule:nonzero;fill:rgb(13.729858%,12.159729%,12.548828%);fill-opacity:1;" d="M 558 230.40625 C 592.339844 230.375 626.632812 228.875 660.917969 231.625 C 696.816406 236.4375 732.808594 240.40625 768.898438 243.5 C 798.777344 245.34375 825.765625 245 855.132812 249.1875 C 884.484375 253.90625 914.03125 256 943.773438 255.46875 C 999.261719 256.9375 1051.5625 263.0625 1106.269531 272.75 C 1166.316406 283.34375 1224.179688 294.40625 1282.285156 313.21875 C 1299.015625 316.25 1314.160156 322.625 1327.722656 332.375 C 1343.730469 347.03125 1346.703125 367.625 1349.878906 387.78125 C 1363.035156 471.40625 1376.316406 556.03125 1378.449219 640.71875 C 1382.03125 783.15625 1387.34375 924.90625 1384.316406 1067.46875 C 1382.703125 1143.4375 1379.125 1217.75 1387.460938 1293.34375 C 1395.734375 1368.34375 1399.742188 1442.71875 1402.28125 1518.21875 C 1407.296875 1667.1875 1415.410156 1815.84375 1414.953125 1964.96875 C 1414.691406 2010.8125 1414.679688 2056.65625 1414.921875 2102.5 C 1415.164062 2137.9375 1423.089844 2188.40625 1408.636719 2222.4375 C 1400.308594 2241.15625 1386.390625 2254.4375 1366.878906 2262.1875 C 1343.183594 2276.25 1308.476562 2295.65625 1281.226562 2303.5 C 1254.425781 2311.21875 1234.5625 2280.1875 1221.40625 2261.21875 C 1204.503906 2236.875 1191.960938 2191.90625 1160.402344 2181.90625 C 1149.164062 2180.5625 1137.886719 2180.03125 1126.570312 2180.3125 C 1104.09375 2182.65625 1096.296875 2198.90625 1083.863281 2215.8125 C 1064.308594 2242.4375 1044.726562 2257.375 1014.769531 2271.03125 C 997.464844 2278.9375 991.296875 2281.90625 981.398438 2264.0625 C 969.875 2243.3125 967.6875 2220.71875 968.023438 2197.46875 C 968.320312 2176.75 971.914062 2142.25 944.839844 2133.625 C 934.535156 2133.03125 924.890625 2135.5 915.90625 2141.125 C 895.765625 2150.28125 877.496094 2163.4375 857.75 2173.4375 C 823.644531 2190.71875 794.277344 2202.8125 763.035156 2171.90625 C 750.839844 2160.125 743.523438 2145.875 741.097656 2129.125 C 733.917969 2099.4375 735.09375 2084.03125 753.46875 2058.875 C 770.644531 2041.8125 785.519531 2022.9375 798.089844 2002.25 C 811.320312 1976.96875 817.445312 1946.875 822.472656 1919.125 C 828.800781 1875.40625 834.449219 1831.59375 839.421875 1787.6875 C 848.363281 1708.65625 854.53125 1636.28125 838.851562 1557.875 C 829.269531 1521.15625 821.078125 1484.15625 814.289062 1446.84375 C 812.921875 1429.34375 811.554688 1411.8125 810.183594 1394.3125 C 809.371094 1345.78125 807.828125 1297.28125 805.558594 1248.8125 C 806.03125 1225.9375 806.507812 1203.0625 806.980469 1180.1875 C 816.914062 1134.34375 833.308594 1090.90625 856.164062 1049.90625 C 872.761719 1012.34375 881.074219 992.1875 883.074219 953.65625 C 886.605469 885.65625 810.191406 836.65625 756.394531 809.84375 C 689.6875 776.625 610.46875 764.09375 536.554688 763.75 C 515.847656 763.53125 495.585938 760.3125 475.765625 754.09375 C 462.660156 749.0625 449.550781 744.03125 436.445312 738.96875 C 405.574219 725.375 374.519531 712.21875 343.28125 699.5 C 327.089844 697.6875 319.179688 689.625 319.550781 675.375 C 321.328125 667.15625 323.109375 658.9375 324.886719 650.71875 C 332.871094 624.78125 338.253906 598.3125 341.027344 571.28125 C 342.808594 540.65625 343.308594 510.03125 342.527344 479.375 C 341.238281 437.4375 331.046875 393.8125 335.394531 351.875 C 336.59375 333.34375 341.695312 316.0625 350.703125 300 C 360.960938 284.53125 367.273438 285.5625 384.511719 283.90625 C 438.097656 278.65625 438.894531 254.8125 487.441406 237.59375 C 511.878906 228.9375 532.503906 229.65625 558 229.6875 "/>
<path style=" stroke:none;fill-rule:nonzero;fill:rgb(13.729858%,12.159729%,12.548828%);fill-opacity:1;" d="M 680.847656 2204.035156 C 680.53125 2204.261719 679.925781 2204.480469 679.230469 2204.15625 C 678.449219 2203.792969 678.261719 2203.109375 678.472656 2202.519531 L 682.15625 2204.234375 C 682.214844 2204.144531 682.269531 2204.023438 682.320312 2203.914062 C 683.054688 2202.339844 682.761719 2200.703125 681.054688 2199.910156 C 679.507812 2199.1875 677.898438 2199.746094 677.140625 2201.367188 C 676.332031 2203.109375 677.027344 2204.652344 678.550781 2205.359375 C 679.976562 2206.023438 681.09375 2205.582031 681.601562 2205.289062 Z M 680.53125 2201 C 681.171875 2201.300781 681.359375 2201.890625 681.113281 2202.503906 L 678.949219 2201.496094 C 679.222656 2200.960938 679.910156 2200.710938 680.53125 2201 M 686.695312 2202.539062 C 685.25 2201.867188 683.75 2202.554688 683.015625 2204.132812 C 682.253906 2205.765625 682.683594 2207.289062 684.148438 2207.972656 C 684.867188 2208.308594 685.574219 2208.238281 685.957031 2208.074219 L 685.734375 2208.550781 L 687.320312 2209.292969 L 690.871094 2201.679688 L 689.285156 2200.941406 L 687.929688 2203.84375 C 687.816406 2203.40625 687.445312 2202.890625 686.695312 2202.539062 M 686.984375 2205.984375 C 686.5625 2206.886719 685.796875 2207.285156 685.089844 2206.953125 C 684.316406 2206.59375 684.183594 2205.828125 684.625 2204.882812 C 685.054688 2203.957031 685.765625 2203.574219 686.503906 2203.917969 C 687.210938 2204.25 687.40625 2205.082031 686.984375 2205.984375 M 691.753906 2211.515625 C 693.199219 2212.191406 694.699219 2211.5 695.433594 2209.925781 C 696.195312 2208.292969 695.765625 2206.769531 694.289062 2206.082031 C 693.582031 2205.75 692.875 2205.816406 692.492188 2205.984375 L 693.75 2203.289062 L 692.164062 2202.546875 L 688.714844 2209.941406 L 690.300781 2210.683594 L 690.519531 2210.214844 C 690.675781 2210.761719 691.121094 2211.222656 691.753906 2211.515625 M 691.464844 2208.074219 C 691.886719 2207.171875 692.652344 2206.773438 693.359375 2207.101562 C 694.132812 2207.464844 694.265625 2208.226562 693.828125 2209.175781 C 693.394531 2210.101562 692.683594 2210.484375 691.945312 2210.140625 C 691.238281 2209.808594 691.042969 2208.976562 691.464844 2208.074219 M 703.398438 2213.769531 L 705.855469 2214.914062 L 706.554688 2213.417969 L 704.097656 2212.269531 L 705.273438 2209.746094 L 703.765625 2209.042969 L 702.589844 2211.566406 L 700.121094 2210.414062 L 699.417969 2211.914062 L 701.886719 2213.066406 L 700.730469 2215.546875 L 702.242188 2216.25 Z M 712.144531 2221.027344 C 713.589844 2221.699219 715.089844 2221.011719 715.828125 2219.433594 C 716.585938 2217.800781 716.160156 2216.28125 714.679688 2215.589844 C 713.972656 2215.261719 713.265625 2215.328125 712.882812 2215.492188 L 713.105469 2215.015625 L 711.519531 2214.273438 L 708.191406 2221.40625 L 709.78125 2222.148438 L 710.910156 2219.722656 C 711.066406 2220.273438 711.511719 2220.730469 712.144531 2221.027344 M 711.855469 2217.582031 C 712.277344 2216.679688 713.046875 2216.28125 713.753906 2216.613281 C 714.523438 2216.972656 714.660156 2217.738281 714.21875 2218.683594 C 713.785156 2219.609375 713.078125 2219.992188 712.335938 2219.648438 C 711.628906 2219.316406 711.433594 2218.484375 711.855469 2217.582031 M 721.726562 2220.832031 C 722.273438 2219.660156 721.628906 2218.855469 720.304688 2218.238281 C 718.84375 2217.558594 717.589844 2217.753906 717.058594 2218.949219 L 718.519531 2219.644531 C 718.765625 2219.121094 719.175781 2219.035156 719.730469 2219.292969 C 720.273438 2219.546875 720.390625 2219.867188 720.210938 2220.257812 L 720.167969 2220.347656 C 720.09375 2220.507812 720.039062 2220.511719 719.730469 2220.433594 L 718.570312 2220.105469 C 717.386719 2219.777344 716.460938 2219.808594 716 2220.796875 C 715.496094 2221.875 715.953125 2222.800781 717.09375 2223.332031 C 717.929688 2223.722656 718.414062 2223.683594 718.773438 2223.535156 L 718.785156 2223.539062 C 718.714844 2223.972656 719.097656 2224.253906 719.554688 2224.46875 C 719.816406 2224.589844 720.066406 2224.679688 720.324219 2224.746094 L 720.75 2223.835938 L 720.675781 2223.796875 C 720.445312 2223.691406 720.453125 2223.5625 720.605469 2223.238281 Z M 719.3125 2222.15625 C 719.054688 2222.703125 718.574219 2222.769531 718.050781 2222.523438 C 717.59375 2222.3125 717.367188 2221.980469 717.5625 2221.554688 C 717.773438 2221.109375 718.191406 2221.199219 718.75 2221.339844 C 719.378906 2221.5 719.472656 2221.492188 719.613281 2221.503906 Z M 724.421875 2226.75 C 725.871094 2227.425781 727.367188 2226.738281 728.105469 2225.160156 C 728.863281 2223.527344 728.4375 2222.003906 726.957031 2221.316406 C 726.25 2220.984375 725.542969 2221.054688 725.164062 2221.21875 L 725.386719 2220.742188 L 723.796875 2220 L 720.472656 2227.132812 L 722.058594 2227.875 L 723.1875 2225.449219 C 723.34375 2225.996094 723.792969 2226.457031 724.421875 2226.75 M 724.132812 2223.308594 C 724.554688 2222.40625 725.324219 2222.007812 726.03125 2222.335938 C 726.804688 2222.699219 726.9375 2223.460938 726.496094 2224.410156 C 726.0625 2225.332031 725.355469 2225.71875 724.613281 2225.375 C 723.90625 2225.042969 723.714844 2224.210938 724.132812 2223.308594 M 730.34375 2223.054688 L 727.933594 2228.230469 L 729.519531 2228.96875 L 730.640625 2226.566406 C 730.761719 2226.304688 730.894531 2226.074219 731.039062 2225.90625 C 731.363281 2225.527344 731.804688 2225.375 732.414062 2225.65625 C 732.554688 2225.722656 732.738281 2225.835938 732.894531 2225.960938 L 733.601562 2224.441406 C 733.542969 2224.398438 733.488281 2224.375 733.421875 2224.34375 C 732.695312 2224.003906 731.902344 2224.164062 731.582031 2224.488281 L 731.910156 2223.78125 Z M 735.902344 2225.644531 L 734.304688 2224.898438 L 731.890625 2230.074219 L 733.488281 2230.820312 Z M 736.9375 2223.425781 L 735.339844 2222.679688 L 734.613281 2224.234375 L 736.210938 2224.980469 Z M 738.328125 2224.074219 L 734.882812 2231.46875 L 736.46875 2232.210938 L 737.234375 2230.566406 L 737.953125 2230.332031 L 738.414062 2233.117188 L 740.371094 2234.03125 L 739.585938 2229.8125 L 742.632812 2228.785156 L 740.535156 2227.804688 L 738.085938 2228.742188 L 739.917969 2224.816406 Z M 747.097656 2232.664062 C 747.644531 2231.492188 747.003906 2230.6875 745.675781 2230.070312 C 744.21875 2229.390625 742.964844 2229.585938 742.433594 2230.78125 L 743.894531 2231.476562 C 744.136719 2230.953125 744.546875 2230.867188 745.105469 2231.125 C 745.648438 2231.378906 745.765625 2231.699219 745.582031 2232.089844 L 745.542969 2232.175781 C 745.464844 2232.339844 745.410156 2232.34375 745.101562 2232.265625 L 743.945312 2231.9375 C 742.761719 2231.609375 741.832031 2231.640625 741.371094 2232.628906 C 740.871094 2233.707031 741.324219 2234.632812 742.464844 2235.164062 C 743.304688 2235.554688 743.785156 2235.515625 744.144531 2235.367188 L 744.15625 2235.371094 C 744.089844 2235.804688 744.472656 2236.085938 744.929688 2236.300781 C 745.1875 2236.421875 745.4375 2236.511719 745.695312 2236.578125 L 746.125 2235.664062 L 746.046875 2235.628906 C 745.820312 2235.523438 745.828125 2235.394531 745.976562 2235.070312 Z M 744.683594 2233.988281 C 744.429688 2234.53125 743.945312 2234.601562 743.425781 2234.355469 C 742.96875 2234.144531 742.738281 2233.8125 742.9375 2233.386719 C 743.144531 2232.941406 743.566406 2233.03125 744.125 2233.171875 C 744.75 2233.332031 744.847656 2233.324219 744.988281 2233.335938 Z M 744.683594 2233.988281 "/>
</g>
</svg>
