<?xml version="1.0" encoding="UTF-8"?>
<svg xmlns="http://www.w3.org/2000/svg" xmlns:xlink="http://www.w3.org/1999/xlink" width="1728pt" height="2592pt" viewBox="0 0 1728 2592" version="1.1">
<g id="surface1">
<rect x="0" y="0" width="1728" height="2592" style="fill:rgb(26.777649%,65.756226%,23.118591%);fill-opacity:1;stroke:none;"/>
<path style=" stroke:none;fill-rule:nonzero;fill:rgb(57.000732%,85.53772%,84.312439%);fill-opacity:1;" d="M 159.953125 1405.011719 C 158.113281 1419.664062 156.269531 1434.320312 154.429688 1448.976562 C 145.519531 1524.433594 145.316406 1599.878906 153.820312 1675.3125 C 166.136719 1718.367188 193.988281 1762.105469 218.335938 1797.730469 C 241.578125 1826.761719 264.820312 1855.796875 288.0625 1884.832031 C 330.539062 1932.472656 383.675781 1961.277344 447.484375 1971.25 C 508.386719 1980.410156 569.289062 1989.570312 630.1875 1998.730469 C 813.097656 2008.472656 996.128906 2014.410156 1179.285156 2016.539062 C 1270.148438 2015.214844 1525.363281 2040.488281 1565.945312 1899.011719 C 1567.414062 1886.1875 1568.886719 1873.363281 1570.355469 1860.535156 C 1582.988281 1797.941406 1583.714844 1734.824219 1572.535156 1671.183594 C 1560.726562 1629.457031 1548.914062 1587.734375 1537.105469 1546.011719 C 1520.019531 1525.253906 1510.199219 1502.082031 1507.640625 1476.503906 C 1493.160156 1392.800781 1463.390625 1302.921875 1413.671875 1233.03125 C 1392.851562 1209.816406 1372.035156 1186.601562 1351.214844 1163.386719 C 1320.441406 1141.402344 1286.527344 1133.734375 1249.476562 1140.382812 C 1136.46875 1141.4375 1019.246094 1137.261719 906.730469 1146.164062 C 796.117188 1154.910156 695.488281 1197.972656 586.097656 1209.871094 C 528.46875 1216.140625 466.980469 1202.710938 411.878906 1224.136719 C 362.277344 1243.425781 311.074219 1271.671875 263.703125 1296.398438 C 235.542969 1311.101562 213.636719 1338.863281 188.585938 1358.019531 C 178.667969 1365.601562 154.832031 1375.738281 159.953125 1392.945312 "/>
<path style=" stroke:none;fill-rule:nonzero;fill:rgb(57.000732%,85.53772%,84.312439%);fill-opacity:1;" d="M 1238.363281 1288.578125 C 1254.433594 1288.648438 1268.679688 1282.21875 1281.101562 1269.296875 C 1361.96875 1222.039062 1446.871094 1147.75 1486.605469 1061.046875 C 1510.9375 1007.960938 1526.988281 942.773438 1541.726562 886.367188 C 1554.207031 838.59375 1554.945312 802.289062 1545.070312 754.164062 C 1524.628906 654.523438 1481.546875 560.695312 1391.738281 510.078125 C 1331.941406 476.382812 1290.101562 447.210938 1216.203125 455.71875 C 1201.097656 457.328125 1186.679688 461.265625 1172.945312 467.53125 C 1157.511719 474.671875 1148.976562 488.304688 1135.300781 495.78125 C 1118.511719 504.960938 1100.867188 499.9375 1083.941406 508.617188 C 1060.484375 520.640625 1057.726562 543.390625 1038.996094 559.703125 C 1004.347656 589.890625 958.917969 592.921875 940.546875 641.898438 C 930.101562 669.757812 946.269531 692.609375 944.921875 721.296875 C 943.578125 749.90625 937.039062 777.828125 936.65625 806.90625 C 936.089844 849.84375 944.355469 886.546875 955.949219 927.78125 C 965.371094 961.28125 987.34375 982.976562 999.570312 1014.078125 C 1019.480469 1064.71875 1043.914062 1128.742188 1085.917969 1167.476562 C 1099.421875 1179.929688 1114.269531 1182.15625 1124.855469 1196.078125 C 1135.011719 1209.4375 1133.699219 1221.75 1149.511719 1235.4375 C 1166.265625 1249.945312 1187.878906 1259.460938 1207.019531 1270.484375 "/>
<path style=" stroke:none;fill-rule:nonzero;fill:rgb(57.000732%,85.53772%,84.312439%);fill-opacity:1;" d="M 701.992188 1241.523438 C 772.355469 1117.15625 771.605469 964.195312 763.714844 825.507812 C 762.71875 808.046875 767.328125 701.585938 752.5625 683.914062 C 743.398438 672.9375 726.292969 669.84375 713.539062 664.492188 C 582.78125 609.539062 352.835938 488.21875 256.148438 661.273438 C 230.507812 707.179688 212.996094 759.304688 190.328125 807.007812 C 148.507812 895 158.257812 981.484375 210.945312 1064.679688 C 258.039062 1139.023438 345.601562 1199.585938 425.910156 1231.109375 C 471.492188 1249.007812 519.8125 1257.429688 566.550781 1271.789062 C 594.730469 1280.460938 657.40625 1308.929688 677.171875 1268.203125 "/>
<path style=" stroke:none;fill-rule:nonzero;fill:rgb(57.000732%,85.53772%,84.312439%);fill-opacity:1;" d="M 1580.835938 1807.835938 C 1551.761719 1796.953125 1545.703125 1834.6875 1544.605469 1853.34375 C 1542.992188 1880.742188 1554.691406 1886.03125 1583.144531 1880.320312 C 1600.988281 1876.742188 1607.21875 1863.1875 1613.558594 1845.828125 C 1621.792969 1823.273438 1616.21875 1815.679688 1595.234375 1807.835938 "/>
<path style=" stroke:none;fill-rule:nonzero;fill:rgb(57.000732%,85.53772%,84.312439%);fill-opacity:1;" d="M 1462.679688 463.320312 C 1462.582031 463.695312 1462.257812 464.253906 1461.515625 464.449219 C 1460.679688 464.675781 1460.101562 464.269531 1459.882812 463.683594 L 1463.808594 462.628906 C 1463.792969 462.523438 1463.757812 462.394531 1463.726562 462.28125 C 1463.277344 460.597656 1462 459.539062 1460.179688 460.027344 C 1458.535156 460.464844 1457.660156 461.929688 1458.125 463.65625 C 1458.621094 465.511719 1460.148438 466.246094 1461.769531 465.808594 C 1463.285156 465.402344 1463.859375 464.34375 1464.058594 463.792969 Z M 1460.484375 461.199219 C 1461.167969 461.015625 1461.691406 461.347656 1461.898438 461.976562 L 1459.589844 462.59375 C 1459.457031 462.007812 1459.824219 461.375 1460.484375 461.199219 M 1466.195312 458.414062 C 1464.65625 458.828125 1463.949219 460.320312 1464.402344 462 C 1464.867188 463.738281 1466.171875 464.628906 1467.738281 464.210938 C 1468.503906 464.003906 1469 463.5 1469.1875 463.128906 L 1469.324219 463.636719 L 1471.015625 463.183594 L 1468.839844 455.070312 L 1467.148438 455.523438 L 1467.976562 458.617188 C 1467.609375 458.355469 1466.996094 458.199219 1466.195312 458.414062 M 1468.628906 460.867188 C 1468.886719 461.828125 1468.554688 462.625 1467.800781 462.828125 C 1466.976562 463.050781 1466.382812 462.550781 1466.113281 461.539062 C 1465.851562 460.554688 1466.148438 459.804688 1466.933594 459.59375 C 1467.6875 459.390625 1468.371094 459.90625 1468.628906 460.867188 M 1475.839844 462.039062 C 1477.382812 461.628906 1478.085938 460.136719 1477.636719 458.453125 C 1477.167969 456.714844 1475.863281 455.824219 1474.289062 456.246094 C 1473.535156 456.449219 1473.035156 456.953125 1472.847656 457.328125 L 1472.078125 454.453125 L 1470.386719 454.90625 L 1472.5 462.785156 L 1474.191406 462.332031 L 1474.054688 461.835938 C 1474.527344 462.15625 1475.167969 462.21875 1475.839844 462.039062 M 1473.40625 459.585938 C 1473.148438 458.625 1473.480469 457.828125 1474.234375 457.625 C 1475.058594 457.40625 1475.652344 457.90625 1475.921875 458.914062 C 1476.183594 459.898438 1475.890625 460.648438 1475.101562 460.859375 C 1474.347656 461.0625 1473.664062 460.550781 1473.40625 459.585938 M 1486.210938 456.28125 L 1488.828125 455.578125 L 1488.402344 453.980469 L 1485.78125 454.679688 L 1485.058594 451.992188 L 1483.449219 452.421875 L 1484.171875 455.113281 L 1481.539062 455.820312 L 1481.96875 457.417969 L 1484.597656 456.710938 L 1485.308594 459.355469 L 1486.917969 458.921875 Z M 1497.574219 456.214844 C 1499.113281 455.804688 1499.820312 454.3125 1499.367188 452.628906 C 1498.902344 450.890625 1497.597656 450 1496.019531 450.421875 C 1495.265625 450.625 1494.765625 451.128906 1494.582031 451.503906 L 1494.445312 450.992188 L 1492.753906 451.445312 L 1494.792969 459.046875 L 1496.484375 458.59375 L 1495.789062 456.011719 C 1496.261719 456.332031 1496.902344 456.394531 1497.574219 456.214844 M 1495.136719 453.765625 C 1494.878906 452.800781 1495.214844 452.003906 1495.96875 451.800781 C 1496.789062 451.582031 1497.382812 452.082031 1497.65625 453.089844 C 1497.917969 454.074219 1497.621094 454.824219 1496.835938 455.039062 C 1496.082031 455.238281 1495.394531 454.726562 1495.136719 453.765625 M 1504.789062 449.910156 C 1504.453125 448.660156 1503.445312 448.457031 1502.03125 448.835938 C 1500.476562 449.253906 1499.640625 450.210938 1500.003906 451.464844 L 1501.570312 451.058594 C 1501.417969 450.503906 1501.679688 450.171875 1502.273438 450.011719 C 1502.851562 449.855469 1503.144531 450.027344 1503.257812 450.445312 L 1503.28125 450.539062 C 1503.328125 450.710938 1503.289062 450.746094 1503.003906 450.886719 L 1501.902344 451.378906 C 1500.785156 451.890625 1500.09375 452.511719 1500.378906 453.566406 C 1500.683594 454.710938 1501.628906 455.128906 1502.84375 454.804688 C 1503.738281 454.5625 1504.082031 454.222656 1504.261719 453.878906 L 1504.277344 453.875 C 1504.5 454.25 1504.976562 454.21875 1505.460938 454.089844 C 1505.742188 454.015625 1505.988281 453.925781 1506.230469 453.808594 L 1505.96875 452.835938 L 1505.890625 452.855469 C 1505.648438 452.921875 1505.570312 452.820312 1505.476562 452.472656 Z M 1503.789062 452.476562 C 1503.945312 453.058594 1503.617188 453.417969 1503.0625 453.566406 C 1502.574219 453.699219 1502.183594 453.589844 1502.0625 453.136719 C 1501.9375 452.664062 1502.316406 452.460938 1502.835938 452.210938 C 1503.417969 451.929688 1503.488281 451.863281 1503.601562 451.78125 Z M 1510.660156 452.710938 C 1512.199219 452.296875 1512.90625 450.804688 1512.453125 449.125 C 1511.988281 447.382812 1510.683594 446.492188 1509.105469 446.917969 C 1508.351562 447.117188 1507.855469 447.625 1507.667969 447.996094 L 1507.53125 447.488281 L 1505.839844 447.941406 L 1507.878906 455.542969 L 1509.570312 455.089844 L 1508.875 452.503906 C 1509.347656 452.824219 1509.988281 452.890625 1510.660156 452.710938 M 1508.222656 450.257812 C 1507.964844 449.296875 1508.300781 448.496094 1509.054688 448.296875 C 1509.875 448.074219 1510.46875 448.574219 1510.742188 449.582031 C 1511.003906 450.570312 1510.707031 451.320312 1509.921875 451.53125 C 1509.167969 451.730469 1508.484375 451.21875 1508.222656 450.257812 M 1512.820312 446.070312 L 1514.296875 451.585938 L 1515.988281 451.132812 L 1515.300781 448.570312 C 1515.226562 448.292969 1515.179688 448.03125 1515.183594 447.808594 C 1515.1875 447.308594 1515.425781 446.910156 1516.078125 446.738281 C 1516.226562 446.695312 1516.441406 446.664062 1516.640625 446.660156 L 1516.207031 445.039062 C 1516.132812 445.046875 1516.074219 445.0625 1516.003906 445.078125 C 1515.226562 445.289062 1514.726562 445.917969 1514.6875 446.375 L 1514.488281 445.625 Z M 1518.742188 444.484375 L 1517.039062 444.941406 L 1518.515625 450.457031 L 1520.21875 450 Z M 1518.105469 442.121094 L 1516.402344 442.574219 L 1516.847656 444.230469 L 1518.550781 443.777344 Z M 1519.589844 441.722656 L 1521.703125 449.601562 L 1523.394531 449.148438 L 1522.925781 447.398438 L 1523.324219 446.757812 L 1525.46875 448.59375 L 1527.554688 448.035156 L 1524.242188 445.308594 L 1525.914062 442.5625 L 1523.675781 443.160156 L 1522.402344 445.453125 L 1521.28125 441.269531 Z M 1531.832031 442.664062 C 1531.496094 441.414062 1530.488281 441.210938 1529.074219 441.589844 C 1527.519531 442.007812 1526.683594 442.964844 1527.042969 444.21875 L 1528.609375 443.8125 C 1528.460938 443.257812 1528.71875 442.925781 1529.3125 442.765625 C 1529.890625 442.613281 1530.1875 442.78125 1530.296875 443.199219 L 1530.324219 443.292969 C 1530.371094 443.464844 1530.328125 443.5 1530.042969 443.640625 L 1528.945312 444.132812 C 1527.828125 444.644531 1527.136719 445.265625 1527.421875 446.320312 C 1527.726562 447.464844 1528.671875 447.882812 1529.886719 447.558594 C 1530.78125 447.320312 1531.125 446.976562 1531.304688 446.632812 L 1531.316406 446.628906 C 1531.542969 447.003906 1532.015625 446.972656 1532.503906 446.84375 C 1532.78125 446.769531 1533.03125 446.679688 1533.273438 446.5625 L 1533.011719 445.589844 L 1532.929688 445.613281 C 1532.6875 445.675781 1532.609375 445.574219 1532.515625 445.226562 Z M 1530.832031 445.230469 C 1530.988281 445.8125 1530.660156 446.171875 1530.101562 446.320312 C 1529.617188 446.453125 1529.226562 446.34375 1529.105469 445.890625 C 1528.976562 445.417969 1529.359375 445.214844 1529.875 444.964844 C 1530.460938 444.683594 1530.53125 444.617188 1530.644531 444.535156 Z M 1530.832031 445.230469 "/>
</g>
</svg>
