<svg xmlns="http://www.w3.org/2000/svg" width="371.299" height="367.382" viewBox="0 0 371.299 367.382"><path d="M289.502 309.94c0-21.138 11.259-34.924 27.802-34.924 16.772 0 27.802 12.867 27.802 34.924 0 21.599-11.029 34.695-27.802 34.695-16.543 0-27.802-13.555-27.802-34.695m33.316 57.442c29.181 0 48.48-24.126 48.48-56.982 0-34.006-18.841-57.9-48.48-57.9-14.246 0-26.193 6.893-32.168 14.705v-58.82h-26.193v156.241h26.193v-11.489c6.894 8.501 17.463 14.245 32.168 14.245M209.547 309.94c0 21.14-11.26 34.695-27.802 34.695-16.773 0-27.802-13.097-27.802-34.695 0-22.057 11.029-34.924 27.802-34.924 16.542 0 27.802 13.786 27.802 34.924m-33.316 57.442c14.705 0 25.274-5.744 32.167-14.246v11.489h26.192V208.384h-26.192v58.82c-5.975-7.812-17.923-14.705-32.167-14.705-29.64 0-48.481 23.895-48.481 57.9 0 32.857 19.3 56.983 48.481 56.983M53.766 273.637c14.705 0 25.044 9.65 25.733 23.896H26.194c.689-13.097 12.637-23.896 27.572-23.896m34.005 52.387c-3.447 5.515-12.178 18.842-31.938 18.842-19.3 0-28.491-12.867-30.329-27.803h79.729c0-1.838.23-4.824.23-6.663 0-33.546-16.773-57.672-51.697-57.672C23.207 252.728 0 275.247 0 309.021c0 35.385 22.058 58.361 54.455 58.361 31.937 0 46.642-19.99 51.468-27.572l-18.152-13.786zM112.255 128.967c4.747 0 7.658 3.227 8.101 8.543h-16.898c.57-5.252 4.177-8.543 8.797-8.543m9.557 17.658c-1.076 1.771-3.734 5.126-8.987 5.126-6.645 0-9.43-5.126-9.556-10.063h22.53v-1.139c0-8.987-4.493-15.822-13.544-15.822-8.29 0-14.303 6.393-14.303 15.632 0 10.063 5.76 15.949 14.367 15.949 8.227 0 12.151-5.189 13.29-6.962l-3.797-2.721zm-29.999-17.152c-1.962-2.279-5.949-4.747-11.518-4.747s-11.518 2.722-11.518 9.177c0 5.316 4.303 7.405 9.493 8.417l4.113.823c3.038.57 5.253 1.203 5.253 4.051 0 3.037-2.784 4.746-6.898 4.746s-7.531-2.151-9.81-5.126l-3.417 3.544c2.405 3.102 7.151 5.949 12.911 5.949 7.214 0 12.594-3.418 12.594-9.556 0-5.253-3.861-7.279-8.671-8.291l-3.48-.696c-4.494-.95-6.772-1.709-6.772-4.557 0-2.658 2.595-4.114 5.949-4.114 3.291 0 6.202 1.392 8.354 3.797l3.417-3.417zm-35.884 16.391c0 4.685-3.671 6.394-7.594 6.394-3.608 0-6.266-1.836-6.266-5.253 0-3.671 3.354-4.432 7.152-5.19 4.873-1.013 6.202-1.266 6.708-1.456v5.505zm8.354 6.456h-.696c-1.835 0-2.595-.633-2.595-2.722v-15.314c0-7.532-4.43-9.493-11.265-9.493-6.709 0-12.468 3.291-12.341 10.062l5 .57c0-3.607 1.708-6.329 7.151-6.329 5.316 0 6.392 2.089 6.392 5.253v.823c0 1.266-.633 1.519-2.531 1.835l-5.063.886c-4.367.76-7.848 1.772-9.873 4.051-1.14 1.266-1.836 2.975-1.836 5.379 0 6.076 4.304 9.051 10.443 9.051 5.759 0 8.164-2.596 9.113-4.178h.064c.189 2.47 1.392 4.052 5.063 4.052 1.329 0 2.341-.127 2.974-.253v-3.673zM8.337 140.422c0-7.595 4.05-11.393 9.24-11.393 5.316 0 8.86 4.051 8.86 11.393 0 7.215-3.291 11.455-8.734 11.455-5.253 0-9.366-3.796-9.366-11.455m10.379 15.885c7.658 0 13.101-5.886 13.101-15.759 0-10.126-5.76-15.822-13.291-15.822-5.443 0-8.607 3.038-9.683 5.127v-17.341H3.59v43.036h5.253v-4.431c1.076 2.026 4.178 5.19 9.873 5.19M51.436 72.711c4.747 0 7.658 3.227 8.101 8.543H42.639c.57-5.252 4.177-8.543 8.797-8.543m9.557 17.658c-1.076 1.771-3.734 5.126-8.987 5.126-6.646 0-9.43-5.126-9.557-10.063H64.98v-1.139c0-8.987-4.494-15.822-13.544-15.822-8.291 0-14.303 6.392-14.303 15.632 0 10.063 5.759 15.949 14.366 15.949 8.228 0 12.152-5.19 13.291-6.962l-3.797-2.721zm-35.948-6.202c0 7.658-4.113 11.455-9.366 11.455-5.443 0-8.734-4.24-8.734-11.455 0-7.342 3.544-11.393 8.86-11.393 5.19 0 9.24 3.797 9.24 11.393m-10.379 15.884c5.696 0 8.797-3.164 9.873-5.19v4.432h5.253V56.256h-5.253v17.341c-1.076-2.089-4.24-5.127-9.683-5.127-7.531 0-13.291 5.696-13.291 15.822 0 9.874 5.443 15.759 13.101 15.759M198.451 16.898h5.822V37.72c0 1.265.127 2.215.379 2.911.949 2.531 3.418 3.164 6.267 3.164 1.962 0 3.733-.253 5.253-.633v-4.113c-1.014.19-2.215.379-3.48.379-1.646 0-2.342-.316-2.723-1.012-.379-.633-.443-1.519-.443-2.848v-18.67h6.646v-3.987h-6.646V.886l-5.252 1.139v10.886h-5.822v3.987zm-4.051 7.215c0-3.544-.633-6.139-1.898-8.101-1.646-2.532-4.557-3.861-8.481-3.861-4.999 0-8.101 2.405-9.683 5.19v-4.43h-5.253v30.125h5.253V25.568c0-4.746 2.911-8.797 7.975-8.797 4.43 0 6.835 2.152 6.835 8.671v17.594h5.252V24.113zm-46.199-7.658c4.747 0 7.658 3.228 8.101 8.544h-16.898c.57-5.253 4.177-8.544 8.797-8.544m9.557 17.657c-1.076 1.772-3.734 5.127-8.987 5.127-6.646 0-9.43-5.127-9.557-10.063h22.531v-1.139c0-8.987-4.494-15.822-13.544-15.822-8.291 0-14.303 6.392-14.303 15.632 0 10.063 5.759 15.948 14.366 15.948 8.228 0 12.152-5.189 13.291-6.961l-3.797-2.722zm-54.681 8.924h5.253V25.442c0-4.873 3.164-8.734 7.215-8.734 2.405 0 4.367.823 5.379 3.544.443 1.266.696 3.038.696 5.57v17.214h5.253V23.86c0-2.279-.253-4.051-.696-5.506-1.329-4.304-4.62-6.203-8.734-6.203-4.999 0-8.544 2.785-9.999 5.696-1.266-3.797-4.24-5.696-8.607-5.696-4.051 0-7.721 2.279-9.051 5.19v-4.43h-5.252v30.125h5.252V25.442c0-4.873 3.165-8.734 7.215-8.734 2.405 0 4.367.823 5.38 3.544.443 1.266.696 3.038.696 5.57v17.214zM63.649 16.455c4.747 0 7.658 3.228 8.101 8.544H54.852c.57-5.253 4.177-8.544 8.797-8.544m9.557 17.657c-1.076 1.772-3.734 5.127-8.987 5.127-6.645 0-9.43-5.127-9.557-10.063h22.531v-1.139c0-8.987-4.493-15.822-13.544-15.822-8.29 0-14.303 6.392-14.303 15.632 0 10.063 5.759 15.948 14.367 15.948 8.227 0 12.151-5.189 13.29-6.961l-3.797-2.722zM64.852 0l-4.367 8.101h4.62L71.56 0h-6.708zM42.006 0h-5.253v43.036h5.253V0zM15.869 16.455c4.746 0 7.657 3.228 8.1 8.544H7.071c.57-5.253 4.178-8.544 8.798-8.544m9.556 17.657c-1.076 1.772-3.734 5.127-8.987 5.127-6.645 0-9.43-5.127-9.556-10.063h22.53v-1.139c0-8.987-4.493-15.822-13.543-15.822-8.291 0-14.304 6.392-14.304 15.632 0 10.063 5.76 15.948 14.367 15.948 8.227 0 12.151-5.189 13.29-6.961l-3.797-2.722zM17.071 0l-4.367 8.101h4.62L23.78 0h-6.709z"/></svg>