<?xml version="1.0" encoding="UTF-8" standalone="no"?>
<!-- Created with Inkscape (http://www.inkscape.org/) -->

<svg
   xmlns:dc="http://purl.org/dc/elements/1.1/"
   xmlns:cc="http://creativecommons.org/ns#"
   xmlns:rdf="http://www.w3.org/1999/02/22-rdf-syntax-ns#"
   xmlns:svg="http://www.w3.org/2000/svg"
   xmlns="http://www.w3.org/2000/svg"
   version="1.1"
   width="233.49625"
   height="228.71375"
   id="svg4617">
  <defs
     id="defs4619" />
  <metadata
     id="metadata4622">
    <rdf:RDF>
      <cc:Work
         rdf:about="">
        <dc:format>image/svg+xml</dc:format>
        <dc:type
           rdf:resource="http://purl.org/dc/dcmitype/StillImage" />
        <dc:title></dc:title>
      </cc:Work>
    </rdf:RDF>
  </metadata>
  <g
     transform="translate(-174.68045,-272.29102)"
     id="layer1">
    <path
       d="m 229.53695,475.15602 c -2.15438,3.44625 -7.61088,11.77625 -19.961,11.77625 -12.063,0 -17.80663,-8.0425 -18.9555,-17.37625 l 49.831,0 c 0,-1.14875 0.143,-3.01625 0.143,-4.165 0,-20.96625 -10.48238,-36.04375 -32.3105,-36.04375 -19.09913,0 -33.6035,14.0725 -33.6035,35.1825 0,22.11375 13.78612,36.475 34.03375,36.475 19.96087,0 29.15175,-12.4925 32.16787,-17.23125 l -11.34512,-8.6175 z m -21.253,-32.74125 c 9.19087,0 15.65237,6.03125 16.0835,14.935 l -33.31538,0 c 0.43013,-8.18625 7.89788,-14.935 17.23188,-14.935 m 76.541,58.59 c 9.191,0 15.7955,-3.58875 20.10425,-8.90375 l 0,7.18125 16.37,0 0,-97.65 -16.37,0 0,36.7625 c -3.73375,-4.8825 -11.20137,-9.1925 -20.10425,-9.1925 -18.52538,0 -30.30075,14.935 -30.30075,36.18875 0,20.535 12.0625,35.61375 30.30075,35.61375 m 20.82175,-35.90125 c 0,13.2125 -7.03612,21.685 -17.37537,21.685 -10.4835,0 -17.37701,-8.18625 -17.37701,-21.685 0,-13.785 6.89351,-21.8275 17.37701,-21.8275 10.33925,0 17.37537,8.6175 17.37537,21.8275 m 72.23125,35.90125 c 18.2375,0 30.29875,-15.07875 30.29875,-35.61375 0,-21.25375 -11.77625,-36.18875 -30.29875,-36.18875 -8.90375,0 -16.3725,4.31 -20.105,9.1925 l 0,-36.7625 -16.3725,0 0,97.65 16.3725,0 0,-7.18125 c 4.30625,5.315 10.91375,8.90375 20.105,8.90375 M 357.0542,465.10352 c 0,-13.21 7.0375,-21.8275 17.37625,-21.8275 10.48375,0 17.37625,8.0425 17.37625,21.8275 0,13.49875 -6.8925,21.685 -17.37625,21.685 -10.33875,0 -17.37625,-8.4725 -17.37625,-21.685"
       id="path4579"
       style="fill:#ffffff;fill-opacity:1;fill-rule:nonzero;stroke:none" />
    <path
       d="m 187.09548,369.98352 c 4.78659,0 8.18847,-3.68 8.18847,-9.85 0,-6.32875 -3.59963,-9.88875 -8.30663,-9.88875 -3.40235,0 -5.37989,1.89875 -6.05225,3.205 l 0,-10.83875 -3.2832,0 0,26.8975 3.2832,0 0,-2.76875 c 0.67236,1.26625 2.61085,3.24375 6.17041,3.24375 m -6.48681,-9.92875 c 0,-4.74625 2.53174,-7.12 5.77539,-7.12 3.32276,0 5.53714,2.53125 5.53714,7.12 0,4.51 -2.05713,7.16 -5.45853,7.16 -3.2832,0 -5.854,-2.37375 -5.854,-7.16 m 34.96628,7.43625 -0.435,0 c -1.1465,0 -1.62163,-0.395 -1.62163,-1.70125 l 0,-9.57125 c 0,-4.70875 -2.769,-5.93375 -7.0405,-5.93375 -4.19287,0 -7.793,2.0575 -7.71337,6.28875 l 3.125,0.35625 c 0,-2.25375 1.06787,-3.955 4.46975,-3.955 3.32175,0 3.99462,1.305 3.99462,3.2825 l 0,0.55375 c 0,0.79125 -0.3955,0.94875 -1.58212,1.1475 l -3.164,0.51375 c -2.7295,0.475 -4.90475,1.1075 -6.17088,2.5325 -0.712,0.79 -1.1475,1.8575 -1.1475,3.36125 0,3.7975 2.6905,5.65625 6.52738,5.65625 3.59912,0 5.1025,-1.62125 5.69575,-2.61 l 0.0396,0 c 0.11762,1.5425 0.86962,2.53125 3.1645,2.53125 0.83012,0 1.46237,-0.0787 1.85837,-0.1575 l 0,-2.295 z m -5.22113,-4.035 c 0,2.9275 -2.294,3.995 -4.74612,3.995 -2.25488,0 -3.916,-1.1475 -3.916,-3.2825 0,-2.295 2.09562,-2.76875 4.47025,-3.24375 3.04537,-0.6325 3.87537,-0.79125 4.19187,-0.91 l 0,3.44125 z m 22.42775,-10.24375 c -1.22662,-1.425 -3.71837,-2.9675 -7.19875,-2.9675 -3.481,0 -7.19925,1.70125 -7.19925,5.735 0,3.32375 2.69,4.62875 5.93363,5.26125 l 2.57025,0.515 c 1.899,0.35625 3.28325,0.75125 3.28325,2.53125 0,1.89875 -1.73975,2.96625 -4.311,2.96625 -2.57138,0 -4.70713,-1.345 -6.13088,-3.20375 l -2.13625,2.215 c 1.50288,1.93875 4.46975,3.71875 8.06938,3.71875 4.50875,0 7.8715,-2.13625 7.8715,-5.97375 0,-3.2825 -2.413,-4.54875 -5.41988,-5.18125 l -2.17487,-0.435 c -2.8085,-0.59375 -4.23238,-1.0675 -4.23238,-2.84875 0,-1.66 1.62213,-2.57 3.71825,-2.57 2.05663,0 3.8765,0.86875 5.22075,2.3725 l 2.13625,-2.135 z m 18.3535,10.71875 c -0.67287,1.1075 -2.334,3.20375 -5.61675,3.20375 -4.15325,0 -5.8935,-3.20375 -5.97262,-6.28875 l 14.082,0 0,-0.7125 c 0,-5.61625 -2.80913,-9.88875 -8.46538,-9.88875 -5.18162,0 -8.93937,3.995 -8.93937,9.77 0,6.28875 3.59962,9.96875 8.9795,9.96875 5.142,0 7.59375,-3.24375 8.30662,-4.35125 l -2.374,-1.70125 z m -5.97275,-11.035 c 2.96688,0 4.78663,2.01625 5.063,5.33875 l -10.561,0 c 0.356,-3.2825 2.61088,-5.33875 5.498,-5.33875"
       id="path4581"
       style="fill:#ffffff;fill-opacity:1;fill-rule:nonzero;stroke:none" />
    <path
       d="m 184.56375,334.82352 c 3.56107,0 5.49907,-1.9775 6.17095,-3.24375 l 0,2.76875 3.28362,0 0,-26.8975 -3.28362,0 0,10.83875 c -0.67188,-1.30625 -2.65,-3.205 -6.05182,-3.205 -4.70653,0 -8.30663,3.56 -8.30663,9.88875 0,6.17 3.40185,9.85 8.1875,9.85 m 6.48682,-9.92875 c 0,4.78625 -2.57037,7.15875 -5.85304,7.15875 -3.40233,0 -5.45898,-2.64875 -5.45898,-7.15875 0,-4.58875 2.21533,-7.12 5.5376,-7.12 3.24417,0 5.77442,2.3725 5.77442,7.12 m 22.46825,3.87625 c -0.67237,1.1075 -2.334,3.20375 -5.61712,3.20375 -4.15338,0 -5.89413,-3.20375 -5.97325,-6.28875 l 14.08212,0 0,-0.7125 c 0,-5.61625 -2.80912,-9.88875 -8.46487,-9.88875 -5.18213,0 -8.9395,3.995 -8.9395,9.77 0,6.28875 3.59912,9.96875 8.979,9.96875 5.14212,0 7.59525,-3.24375 8.30662,-4.3525 l -2.373,-1.7 z m -5.97312,-11.03625 c 2.96675,0 4.78612,2.0175 5.0625,5.34 l -10.5605,0 c 0.35537,-3.2825 2.61025,-5.34 5.498,-5.34"
       id="path4583"
       style="fill:#ffffff;fill-opacity:1;fill-rule:nonzero;stroke:none" />
    <path
       d="m 186.06766,272.29102 -2.7295,5.06375 2.88721,0 4.0357,-5.06375 -4.19341,0 z m 5.22116,21.32 c -0.67287,1.1075 -2.334,3.20375 -5.61716,3.20375 -4.15333,0 -5.89356,-3.20375 -5.97218,-6.28875 l 14.08059,0 0,-0.71125 c 0,-5.6175 -2.80762,-9.89 -8.46437,-9.89 -5.18164,0 -8.93945,3.99625 -8.93945,9.77 0,6.29 3.6001,9.96875 8.97948,9.96875 5.14209,0 7.59422,-3.24375 8.30622,-4.35125 l -2.37313,-1.70125 z m -5.97312,-11.035 c 2.96625,0 4.78662,2.0175 5.063,5.34 l -10.56104,0 c 0.35595,-3.28375 2.61132,-5.34 5.49804,-5.34 m 16.336,-10.285 -3.28275,0 0,26.8975 3.28275,0 0,-26.8975 z m 14.27875,0 -2.729,5.06375 2.88725,0 4.03412,-5.06375 -4.19237,0 z m 5.22162,21.32 c -0.67275,1.1075 -2.33387,3.20375 -5.61712,3.20375 -4.15338,0 -5.894,-3.20375 -5.97363,-6.28875 l 14.082,0 0,-0.71125 c 0,-5.6175 -2.80762,-9.89 -8.46487,-9.89 -5.18113,0 -8.93888,3.99625 -8.93888,9.77 0,6.29 3.59913,9.96875 8.9795,9.96875 5.14113,0 7.59413,-3.24375 8.30613,-4.35125 l -2.37313,-1.70125 z m -5.97362,-11.035 c 2.96687,0 4.78612,2.0175 5.063,5.34 l -10.561,0 c 0.3565,-3.28375 2.61037,-5.34 5.498,-5.34 m 24.64312,16.6125 3.28225,0 0,-10.9575 c 0,-3.045 1.9775,-5.4575 4.50925,-5.4575 1.50388,0 2.7295,0.51375 3.36225,2.21375 0.27688,0.7925 0.43563,1.9 0.43563,3.48125 l 0,10.72 3.28225,0 0,-11.94625 c 0,-1.42375 -0.15725,-2.53125 -0.43463,-3.44 -0.83062,-2.69 -2.88775,-3.8775 -5.459,-3.8775 -3.1235,0 -5.33987,1.74125 -6.2485,3.56 -0.7915,-2.3725 -2.65037,-3.56 -5.37987,-3.56 -2.53175,0 -4.82525,1.42375 -5.65675,3.24375 l 0,-2.80875 -3.28225,0 0,18.82875 3.28225,0 0,-10.9575 c 0,-3.045 1.9775,-5.4575 4.50925,-5.4575 1.503,0 2.7295,0.51375 3.36237,2.21375 0.27675,0.7925 0.4355,1.9 0.4355,3.48125 l 0,10.72 z m 34.17525,-5.5775 c -0.67287,1.1075 -2.334,3.20375 -5.61712,3.20375 -4.15388,0 -5.89363,-3.20375 -5.97275,-6.28875 l 14.08212,0 0,-0.71125 c 0,-5.6175 -2.80912,-9.89 -8.46587,-9.89 -5.18163,0 -8.939,3.99625 -8.939,9.77 0,6.29 3.59962,9.96875 8.979,9.96875 5.14212,0 7.59425,-3.24375 8.30675,-4.35125 l -2.37313,-1.70125 z m -5.97362,-11.035 c 2.96775,0 4.78662,2.0175 5.0635,5.34 l -10.5615,0 c 0.35637,-3.28375 2.61125,-5.34 5.498,-5.34 m 28.876,4.825 c 0,-2.215 -0.3955,-3.83625 -1.1865,-5.06375 -1.03025,-1.58125 -2.84912,-2.4125 -5.30175,-2.4125 -3.124,0 -5.0635,1.50375 -6.05125,3.24375 l 0,-2.80875 -3.28325,0 0,18.82875 3.28325,0 0,-10.8775 c 0,-2.9675 1.81925,-5.4975 4.98388,-5.4975 2.768,0 4.27187,1.34375 4.27187,5.4175 l 0,10.9575 3.28375,0 0,-11.7875 z m 2.53175,-4.54875 3.637,0 0,13.01375 c 0,0.79 0.08,1.385 0.2375,1.82 0.59375,1.58125 2.13625,1.9775 3.91625,1.9775 1.2275,0 2.33375,-0.15875 3.28375,-0.39625 l 0,-2.57 c -0.6325,0.1175 -1.385,0.23625 -2.17625,0.23625 -1.0275,0 -1.4625,-0.1975 -1.70125,-0.6325 -0.23625,-0.395 -0.27625,-0.95 -0.27625,-1.78 l 0,-11.66875 4.15375,0 0,-2.4925 -4.15375,0 0,-7.515 -3.28375,0.7125 0,6.8025 -3.637,0 0,2.4925"
       id="path4585"
       style="fill:#ffffff;fill-opacity:1;fill-rule:nonzero;stroke:none" />
  </g>
</svg>
